<?xml version="1.0" standalone="no"?>
<!DOCTYPE svg PUBLIC "-//W3C//DTD SVG 1.1//EN" "http://www.w3.org/Graphics/SVG/1.1/DTD/svg11.dtd" >
<svg xmlns="http://www.w3.org/2000/svg" xmlns:xlink="http://www.w3.org/1999/xlink" version="1.1">
<metadata>
Created by FontForge 20161116 at Thu Mar  1 01:23:06 2001
 By Jimmy Wärting
Copr. 1994, Tobias Frere-Jones. Designed by Tobias Frere-Jones. Produced by The Font Bureau, Inc.
</metadata>
<defs>
<font id="InterstateBlack" horiz-adv-x="826" >
  <font-face 
    font-family="InterstateBlack"
    font-weight="400"
    font-stretch="normal"
    units-per-em="1000"
    panose-1="0 0 4 0 0 0 0 0 0 0"
    ascent="800"
    descent="-200"
    x-height="525"
    cap-height="700"
    bbox="-65 -198 1515 924"
    underline-thickness="20"
    underline-position="-143"
    unicode-range="U+0020-F002"
  />
<missing-glyph horiz-adv-x="500" 
d="M63 0v800h375v-800h-375zM125 63h250v675h-250v-675z" />
    <glyph glyph-name=".notdef" horiz-adv-x="500" 
d="M63 0v800h375v-800h-375zM125 63h250v675h-250v-675z" />
    <glyph glyph-name=".null" horiz-adv-x="0" 
 />
    <glyph glyph-name="nonmarkingreturn" horiz-adv-x="330" 
 />
    <glyph glyph-name="space" unicode=" " horiz-adv-x="330" 
 />
    <glyph glyph-name="exclam" unicode="!" horiz-adv-x="350" 
d="M274 450l-33 -200h-132l-33 200v250h198v-250zM279 93q0 -44 -29.5 -74t-74.5 -30t-74.5 30t-29.5 74t29.5 73t74.5 29t74.5 -29t29.5 -73z" />
    <glyph glyph-name="quotedbl" unicode="&#x22;" horiz-adv-x="620" 
d="M563 700l-39 -327h-135l-39 327h213zM270 700l-39 -327h-135l-39 327h213z" />
    <glyph glyph-name="numbersign" unicode="#" horiz-adv-x="800" 
d="M750 122h-105v-122h-182v122h-126v-122h-182v122h-105v153h105v150h-105v153h105v122h182v-122h126v122h182v-122h105v-153h-105v-150h105v-153zM474 262v176h-148v-176h148z" />
    <glyph glyph-name="dollar" unicode="$" horiz-adv-x="661" 
d="M618 215q0 -177 -189 -212v-103h-188v101q-116 19 -207 78l94 147q41 -28 97 -48q62 -22 108 -22q51 0 71 10t20 35q0 20 -25 34t-94 30q-135 31 -188 75q-62 50 -62 150q0 80 49 134t137 73v103h188v-102q100 -16 181 -73l-94 -147q-97 66 -195 66q-72 0 -72 -43
q0 -19 23.5 -31t91.5 -28q137 -32 193 -80q61 -52 61 -147z" />
    <glyph glyph-name="percent" unicode="%" horiz-adv-x="1080" 
d="M1050 208q0 -105 -60 -164q-56 -55 -148 -55t-147 54q-59 58 -59 163t60 164q56 55 148 55t147 -54q59 -58 59 -163zM831 700l-429 -700h-153l429 700h153zM444 494q0 -105 -60 -164q-56 -55 -148 -55t-147 54q-59 58 -59 163t60 164q56 55 148 55t147 -54
q59 -58 59 -163zM903 206q0 110 -60 110q-32 0 -46 -22q-14 -25 -14 -86t14.5 -85.5t46.5 -24.5t45.5 23.5t13.5 84.5zM297 492q0 110 -60 110q-32 0 -46 -22q-14 -25 -14 -86t14.5 -85.5t46.5 -24.5t45.5 23.5t13.5 84.5z" />
    <glyph glyph-name="ampersand" unicode="&#x26;" horiz-adv-x="722" 
d="M724 0h-219l-50 57q-95 -68 -218 -68q-95 0 -150 44q-61 49 -61 145q0 119 146 201l-6 7q-63 73 -63 137q0 91 68 141q65 47 173 47q126 0 234 -64l-79 -144q-84 47 -157 47q-49 0 -49 -30q0 -22 23 -49l150 -174q25 41 62 110l146 -76q-58 -98 -102 -156zM359 166
l-98 111q-52 -36 -52 -75q0 -59 76 -59q40 0 74 23z" />
    <glyph glyph-name="quoteright" unicode="&#x2019;" horiz-adv-x="324" 
d="M283 700l-96 -318h-123l14 318h205z" />
    <glyph glyph-name="parenleft" unicode="(" horiz-adv-x="430" 
d="M374 -33l-129 -77q-187 211 -187 413q0 208 187 419l129 -77q-59 -91 -84 -162q-27 -80 -27 -175q0 -98 27 -178q25 -71 84 -163z" />
    <glyph glyph-name="parenright" unicode=")" horiz-adv-x="430" 
d="M372 309q0 -208 -187 -419l-129 77q59 91 84 163q27 79 27 174q0 98 -27 178q-25 71 -84 163l129 77q187 -211 187 -413z" />
    <glyph glyph-name="asterisk" unicode="*" horiz-adv-x="550" 
d="M520 397l-71 -121l-133 109l28 -169h-138l27 171l-133 -108l-70 119l170 60l-170 61l70 121l133 -110l-27 170h138l-28 -169l133 110l71 -120l-173 -62z" />
    <glyph glyph-name="plus" unicode="+" horiz-adv-x="646" 
d="M591 258h-177v-185h-182v185h-177v172h177v185h182v-185h177v-172z" />
    <glyph glyph-name="comma" unicode="," horiz-adv-x="314" 
d="M276 209l-96 -333h-123l14 333h205z" />
    <glyph glyph-name="hyphen" unicode="-" horiz-adv-x="484" 
d="M416 264h-348v188h348v-188z" />
    <glyph glyph-name="hyphen" unicode="&#x2010;" horiz-adv-x="484" 
d="M416 264h-348v188h348v-188z" />
    <glyph glyph-name="period" unicode="." horiz-adv-x="314" 
d="M272 104q0 -49 -32.5 -82t-82.5 -33q-49 0 -82 33t-33 82t32.5 81t82.5 32t82.5 -32t32.5 -81z" />
    <glyph glyph-name="slash" unicode="/" horiz-adv-x="510" 
d="M526 790l-352 -880h-190l352 880h190z" />
    <glyph glyph-name="zero" unicode="0" horiz-adv-x="716" 
d="M675 351q0 -170 -91 -268q-86 -94 -227 -94t-226 93q-90 97 -90 267t91 268q86 94 227 94t226 -93q90 -97 90 -267zM476 349q0 195 -119 195q-117 0 -117 -193q0 -195 119 -195q117 0 117 193z" />
    <glyph glyph-name="one" unicode="1" horiz-adv-x="421" 
d="M348 0h-190v482h-118v123q67 4 99 25t47 70h162v-700z" />
    <glyph glyph-name="two" unicode="2" horiz-adv-x="700" 
d="M625 0h-572q4 168 83 273q68 92 209 155q55 24 70 37.5t15 34.5q0 48 -78 48q-102 0 -208 -71l-89 143q142 91 300 91q265 0 265 -197q0 -72 -33 -116q-36 -49 -133 -94q-170 -79 -194 -146h365v-158z" />
    <glyph glyph-name="three" unicode="3" horiz-adv-x="685" 
d="M640 222q0 -233 -307 -233q-173 0 -295 107l100 126q95 -73 199 -73q115 0 115 71q0 37 -22.5 52t-76.5 15h-101v151h90q46 0 63.5 12.5t17.5 46.5q0 57 -97 57q-91 0 -174 -60l-92 126q118 91 271 91q280 0 280 -201q0 -92 -93 -137q122 -28 122 -151z" />
    <glyph glyph-name="four" unicode="4" horiz-adv-x="741" 
d="M700 120h-90v-120h-174v125h-395v142l377 433h192v-416h90v-164zM439 504q-25 -38 -84 -109l-10 -12q-57 -68 -92 -102q53 3 131 3h52v69q0 102 3 151z" />
    <glyph glyph-name="five" unicode="5" horiz-adv-x="711" 
d="M659 244q0 -122 -82.5 -188.5t-232.5 -66.5q-158 0 -299 85l79 145q116 -69 225 -69q123 0 123 89q0 82 -94 82q-73 0 -129 -40l-166 56l24 363h510v-158h-353l-6 -97q64 31 151 31q116 0 182 -57q68 -61 68 -175z" />
    <glyph glyph-name="six" unicode="6" horiz-adv-x="696" 
d="M657 241q0 -118 -85 -185t-234 -67q-136 0 -215 73q-83 76 -83 217q0 168 111 285q139 147 411 147v-159q-244 0 -332 -135q74 41 180 41q113 0 178 -53q69 -57 69 -164zM470 228q0 41 -31.5 64t-86.5 23q-127 0 -127 -88q0 -85 123 -85q56 0 89 22.5t33 63.5z" />
    <glyph glyph-name="seven" unicode="7" horiz-adv-x="692" 
d="M628 560q-146 -134 -199 -265q-45 -113 -45 -295h-190q1 178 52 309q48 128 151 233h-348v158h579v-140z" />
    <glyph glyph-name="eight" unicode="8" horiz-adv-x="730" 
d="M684 218q0 -106 -86.5 -167.5t-233.5 -61.5t-232.5 61.5t-85.5 167.5q0 110 109 154q-79 47 -79 131q0 98 82 154q78 54 208 54t207 -54q81 -56 81 -154q0 -79 -79 -129q43 -17 71 -51q38 -44 38 -105zM468 500q0 29 -23 48q-28 22 -81 22q-102 0 -102 -70q0 -67 104 -67
q102 0 102 67zM498 220q0 37 -35 60t-99 23q-65 0 -98.5 -22.5t-33.5 -60.5q0 -37 35 -60.5t99 -23.5t98 23.5t34 60.5z" />
    <glyph glyph-name="nine" unicode="9" horiz-adv-x="696" 
d="M656 421q0 -168 -111 -285q-139 -147 -411 -147v159q244 0 332 135q-74 -41 -180 -41q-113 0 -178 53q-69 57 -69 164q0 118 85 185t234 67q136 0 215 -73q83 -76 83 -217zM471 473q0 85 -123 85q-56 0 -89 -22.5t-33 -63.5t31.5 -64t86.5 -23q127 0 127 88z" />
    <glyph glyph-name="colon" unicode=":" horiz-adv-x="314" 
d="M269 426q0 -48 -32 -80t-80 -32t-80 32t-32 80t32 79t80 31t80 -31t32 -79zM269 101q0 -48 -32 -80t-80 -32t-80 32t-32 80t32 79t80 31t80 -31t32 -79z" />
    <glyph glyph-name="semicolon" unicode=";" horiz-adv-x="314" 
d="M269 426q0 -48 -32 -80t-80 -32q-49 0 -80.5 32t-31.5 80q0 49 31.5 79.5t80.5 30.5q48 0 80 -31t32 -79zM260 204l-94 -325h-119l13 325h200z" />
    <glyph glyph-name="less" unicode="&#x3c;" horiz-adv-x="515" 
d="M454 -11l-397 295v132l397 295v-234l-195 -125l195 -125v-238z" />
    <glyph glyph-name="equal" unicode="=" horiz-adv-x="646" 
d="M566 390h-486v182h486v-182zM566 116h-486v182h486v-182z" />
    <glyph glyph-name="greater" unicode="&#x3e;" horiz-adv-x="515" 
d="M458 284l-397 -295v234l195 125l-195 125v238l397 -295v-132z" />
    <glyph glyph-name="question" unicode="?" horiz-adv-x="602" 
d="M571 519q0 -59 -29 -96t-95 -69q-79 -39 -79 -104h-179q0 67 27 108q29 45 103 80q62 29 62 62q0 48 -78 48q-95 0 -193 -66l-89 143q135 86 285 86q125 0 195 -49t70 -143zM381 93q0 -44 -29.5 -74t-74.5 -30t-74.5 30t-29.5 74t29.5 73t74.5 29t74.5 -29t29.5 -73z" />
    <glyph glyph-name="at" unicode="@" horiz-adv-x="836" 
d="M779 360q0 -207 -147 -207q-71 0 -113 49q-72 -47 -155 -47q-57 0 -90.5 34.5t-33.5 97.5q0 60 39 93q36 32 99 32q59 0 95 -19v27q0 45 -64 45q-55 0 -113 -26l-33 80q75 35 165 35q154 0 154 -142v-125q0 -66 55 -66q37 0 52.5 33.5t15.5 106.5q0 119 -82 199t-205 80
q-129 0 -208 -83t-79 -206q0 -130 81 -210.5t206 -80.5q72 0 127 27l28 -65q-78 -33 -155 -33q-152 0 -255 102q-106 104 -106 259q0 152 103 256.5t258 104.5q154 0 259 -105q102 -102 102 -246zM473 261v60q-31 14 -71 14q-56 0 -56 -46q0 -47 56 -47q35 0 71 19z" />
    <glyph glyph-name="A" unicode="A" horiz-adv-x="762" 
d="M733 0h-210l-38 123h-210l-38 -123h-208l254 700h196zM438 277l-13 46q-36 126 -45 175q-9 -49 -45 -175l-13 -46h116z" />
    <glyph glyph-name="B" unicode="B" horiz-adv-x="717" 
d="M670 226q0 -109 -65 -167q-68 -59 -198 -59h-336v700h338q245 0 245 -182q0 -89 -84 -137q100 -43 100 -155zM464 492q0 55 -61 55h-146v-110h146q61 0 61 55zM480 222q0 67 -69 67h-154v-136h153q70 0 70 69z" />
    <glyph glyph-name="C" unicode="C" horiz-adv-x="686" 
d="M652 170q-92 -181 -291 -181q-152 0 -237 103q-82 97 -82 258q0 166 90 265q87 96 230 96q122 0 191 -53q58 -47 97 -153l-176 -69q-21 55 -42 77q-27 29 -71 29q-58 0 -88 -54q-28 -50 -28 -138q0 -86 28 -136q30 -56 90 -56q43 0 71 25q23 19 54 74z" />
    <glyph glyph-name="D" unicode="D" horiz-adv-x="722" 
d="M676 354q0 -192 -96 -276q-89 -78 -282 -78h-227v700h245q176 0 263 -74q97 -84 97 -272zM477 351q0 98 -36.5 140.5t-125.5 42.5h-48v-368h42q92 0 130 41t38 144z" />
    <glyph glyph-name="E" unicode="E" horiz-adv-x="667" 
d="M614 0h-543v700h536v-163h-344v-93h207v-161h-207v-120h351v-163z" />
    <glyph glyph-name="F" unicode="F" horiz-adv-x="658" 
d="M625 535h-361v-97h219v-164h-219v-274h-193v700h554v-165z" />
    <glyph glyph-name="G" unicode="G" horiz-adv-x="721" 
d="M678 299q0 -150 -80.5 -230t-232.5 -80q-146 0 -233 95q-90 97 -90 266q0 160 84 258q87 103 242 103q126 0 193 -49q60 -43 100 -147l-176 -69q-19 49 -42 71q-29 25 -76 25q-122 0 -122 -192q0 -197 135 -197q103 0 117 86v0h-127v145h308v-85z" />
    <glyph glyph-name="H" unicode="H" horiz-adv-x="756" 
d="M685 0h-198v276h-218v-276h-198v700h198v-255h218v255h198v-700z" />
    <glyph glyph-name="I" unicode="I" horiz-adv-x="350" 
d="M274 0h-198v700h198v-700z" />
    <glyph glyph-name="J" unicode="J" horiz-adv-x="690" 
d="M622 285q0 -140 -74 -218t-220 -78q-133 0 -209 66q-67 58 -96 176l190 50q19 -64 43 -90q27 -31 75 -31q93 0 93 110v430h198v-415z" />
    <glyph glyph-name="K" unicode="K" horiz-adv-x="734" 
d="M717 0h-230l-146 298l-72 -87v-211h-198v700h198v-82q0 -96 -3 -173q40 64 135 184l56 71h236l-211 -247z" />
    <glyph glyph-name="L" unicode="L" horiz-adv-x="615" 
d="M577 0h-506v700h196v-531h310v-169z" />
    <glyph glyph-name="M" unicode="M" horiz-adv-x="844" 
d="M773 0h-182v167q0 114 4 186q-33 -82 -81 -183l-92 -194l-92 194q-48 101 -81 183q4 -72 4 -186v-167h-182v700h178l86 -187q74 -160 88 -211q17 57 88 211l86 187h176v-700z" />
    <glyph glyph-name="N" unicode="N" horiz-adv-x="756" 
d="M685 0h-158l-167 231q-70 97 -109 164q6 -37 6 -181v-214h-186v700h171l154 -207q78 -104 109 -165q-6 37 -6 181v191h186v-700z" />
    <glyph glyph-name="O" unicode="O" horiz-adv-x="732" 
d="M690 351q0 -171 -89.5 -266.5t-235.5 -95.5t-233 93q-90 96 -90 267t91 268q88 94 234 94t233 -93q90 -96 90 -267zM489 349q0 94 -32.5 143.5t-91.5 49.5q-122 0 -122 -191q0 -94 32.5 -143.5t91.5 -49.5q122 0 122 191z" />
    <glyph glyph-name="P" unicode="P" horiz-adv-x="679" 
d="M645 468q0 -241 -286 -241h-97v-227h-191v700h301q273 0 273 -232zM452 465q0 77 -85 77h-105v-157h102q88 0 88 80z" />
    <glyph glyph-name="Q" unicode="Q" horiz-adv-x="732" 
d="M690 351q0 -151 -90 -254l57 -74l-131 -86l-51 72q-54 -20 -110 -20q-146 0 -233 93q-90 96 -90 267t91 268q88 94 234 94t233 -93q90 -96 90 -267zM497 349q0 92 -37 144q-35 49 -95 49q-122 0 -122 -191q0 -203 124 -203h9l-60 79l129 84l43 -62q9 41 9 100z" />
    <glyph glyph-name="R" unicode="R" horiz-adv-x="716" 
d="M671 0h-217l-114 236h-78v-236h-191v700h313q273 0 273 -228q0 -148 -126 -205zM464 467q0 75 -85 75h-117v-153h114q88 0 88 78z" />
    <glyph glyph-name="S" unicode="S" horiz-adv-x="679" 
d="M628 215q0 -115 -81 -173q-75 -53 -208 -53q-166 0 -295 85l94 152q41 -28 97 -48q62 -22 108 -22q51 0 71 10t20 35q0 20 -25 34t-94 30q-135 31 -188 75q-62 50 -62 150t75 160.5t201 60.5q164 0 279 -81l-94 -152q-97 66 -195 66q-72 0 -72 -43q0 -19 23.5 -31
t91.5 -28q137 -32 193 -80q61 -52 61 -147z" />
    <glyph glyph-name="T" unicode="T" horiz-adv-x="670" 
d="M628 531h-196v-531h-194v531h-196v169h586v-169z" />
    <glyph glyph-name="U" unicode="U" horiz-adv-x="748" 
d="M681 299q0 -159 -88 -238q-80 -72 -221 -72q-140 0 -218 72q-87 79 -87 238v401h198v-401q0 -139 110 -139q108 0 108 139v401h198v-401z" />
    <glyph glyph-name="V" unicode="V" horiz-adv-x="736" 
d="M707 700l-241 -700h-196l-241 700h218l51 -188q48 -176 71 -296q23 120 71 296l51 188h216z" />
    <glyph glyph-name="W" unicode="W" horiz-adv-x="926" 
d="M888 700l-167 -700h-179l-32 152q-40 191 -48 290q-8 -99 -48 -290l-32 -152h-177l-167 700h200l19 -117q34 -210 42 -304q9 91 52 303l24 118h178l24 -118q43 -212 52 -303q8 94 42 304l19 117h198z" />
    <glyph glyph-name="X" unicode="X" horiz-adv-x="732" 
d="M703 0h-225l-47 81q-41 70 -67 129q-20 -46 -68 -129l-47 -81h-220l229 354l-221 346h225l39 -68q52 -90 67 -128q17 38 68 128l39 68h220l-221 -342z" />
    <glyph glyph-name="Y" unicode="Y" horiz-adv-x="746" 
d="M730 700l-259 -439v-261h-196v258l-259 442h224l54 -106q60 -118 80 -181q20 63 80 181l54 106h222z" />
    <glyph glyph-name="Z" unicode="Z" horiz-adv-x="710" 
d="M640 0h-574v139l205 250q40 49 138 156q-81 -3 -208 -3h-115v158h552v-139l-205 -250q-40 -49 -138 -156q81 3 208 3h137v-158z" />
    <glyph glyph-name="bracketleft" unicode="[" horiz-adv-x="463" 
d="M384 -110h-305v810h305v-147h-124v-516h124v-147z" />
    <glyph glyph-name="backslash" unicode="\" horiz-adv-x="510" 
d="M526 -90h-190l-352 880h190z" />
    <glyph glyph-name="bracketright" unicode="]" horiz-adv-x="463" 
d="M384 -110h-305v147h124v516h-124v147h305v-810z" />
    <glyph glyph-name="asciicircum" unicode="^" horiz-adv-x="620" 
d="M595 362h-188l-98 183l-98 -183h-186l205 338h160z" />
    <glyph glyph-name="underscore" unicode="_" horiz-adv-x="500" 
d="M500 -198h-500v137h500v-137z" />
    <glyph glyph-name="quoteleft" unicode="&#x2018;" horiz-adv-x="324" 
d="M260 700l-14 -318h-205l96 318h123z" />
    <glyph glyph-name="a" unicode="a" horiz-adv-x="558" 
d="M506 0h-170v35q-60 -46 -128 -46q-78 0 -124 47t-46 134q0 83 53 128q50 43 136 43q60 0 109 -22v26q0 62 -74 62q-77 0 -146 -38l-47 119q99 48 226 48q211 0 211 -195v-341zM336 142v72q-33 15 -77 15q-56 0 -56 -56q0 -57 56 -57q45 0 77 26z" />
    <glyph glyph-name="b" unicode="b" horiz-adv-x="572" 
d="M535 264q0 -275 -182 -275q-56 0 -117 46v-35h-180v657l180 72v-241q62 48 124 48q79 0 125 -63q50 -70 50 -209zM357 258q0 75 -14 104q-13 26 -43 26q-32 0 -64 -25v-201q32 -25 65 -25q30 0 43 25.5t13 95.5z" />
    <glyph glyph-name="c" unicode="c" horiz-adv-x="520" 
d="M492 114q-46 -68 -94 -96.5t-117 -28.5q-116 0 -181 71.5t-65 203.5q0 125 62 196q66 76 188 76q127 0 202 -120l-124 -94q-20 38 -35 51q-18 17 -46 17q-69 0 -69 -129q0 -126 74 -126q45 0 91 68z" />
    <glyph glyph-name="d" unicode="d" horiz-adv-x="572" 
d="M516 0h-181v37q-60 -48 -124 -48q-79 0 -124 63q-50 70 -50 209q0 275 181 275q56 0 117 -46v167l181 72v-729zM335 162v201q-30 25 -64 25q-30 0 -42 -24q-15 -27 -15 -97q0 -75 14 -102.5t44 -27.5q33 0 63 25z" />
    <glyph glyph-name="e" unicode="e" horiz-adv-x="544" 
d="M509 246q0 -26 -1 -35h-308q9 -84 89 -84q65 0 136 37l69 -115q-103 -60 -214 -60q-116 0 -182 76q-63 73 -63 197q0 132 68 205q65 69 172 69q111 0 171 -72q63 -75 63 -218zM350 323q-7 42 -23 60q-19 20 -57 20q-61 0 -70 -80h150z" />
    <glyph glyph-name="f" unicode="f" horiz-adv-x="383" 
d="M354 588q-24 11 -52 11q-36 0 -36 -33v-41h81v-141h-78v-384h-177v384h-56v141h56v51q0 80 35.5 115t112.5 35q72 0 114 -22v-116z" />
    <glyph glyph-name="g" unicode="g" horiz-adv-x="572" 
d="M516 79q0 -131 -66 -193q-61 -58 -208 -79l-66 104q97 16 128 37.5t31 75.5v18q-60 -48 -124 -48q-174 0 -174 267q0 275 181 275q56 0 117 -46v35h181v-446zM335 162v201q-30 25 -64 25q-30 0 -42 -24q-15 -27 -15 -97q0 -75 14 -102.5t44 -27.5q33 0 63 25z" />
    <glyph glyph-name="h" unicode="h" horiz-adv-x="590" 
d="M538 0h-181v298q0 86 -60 86q-61 0 -61 -84v-300h-180v657l180 72v-239q61 46 132 46q170 0 170 -215v-321z" />
    <glyph glyph-name="i" unicode="i" horiz-adv-x="302" 
d="M256 652q0 -41 -29 -65t-76 -24q-45 0 -74 24t-29 65q0 38 29.5 62.5t73.5 24.5q46 0 75.5 -24.5t29.5 -62.5zM241 0h-180v525h180v-525z" />
    <glyph glyph-name="j" unicode="j" horiz-adv-x="302" 
d="M256 652q0 -41 -29 -65t-76 -24q-45 0 -74 24t-29 65q0 38 29.5 62.5t73.5 24.5q46 0 75.5 -24.5t29.5 -62.5zM241 50q0 -120 -56 -176q-53 -52 -180 -67l-60 124q67 9 91.5 32.5t24.5 76.5v485h180v-475z" />
    <glyph glyph-name="k" unicode="k" horiz-adv-x="574" 
d="M556 0h-194l-79 219l-47 -60v-159h-180v657l180 72v-214q0 -50 -3 -149q20 38 79 114l35 45h205l-136 -158z" />
    <glyph glyph-name="l" unicode="l" horiz-adv-x="302" 
d="M241 0h-180v657l180 72v-729z" />
    <glyph glyph-name="m" unicode="m" horiz-adv-x="880" 
d="M828 0h-181v298q0 86 -57 86q-58 0 -58 -84v-300h-180v298q0 86 -58 86t-58 -84v-300h-180v525h180v-35q56 46 125 46q91 0 145 -59q72 59 153 59q169 0 169 -215v-321z" />
    <glyph glyph-name="n" unicode="n" horiz-adv-x="590" 
d="M538 0h-181v298q0 86 -60 86q-61 0 -61 -84v-300h-180v525h180v-35q61 46 132 46q170 0 170 -215v-321z" />
    <glyph glyph-name="o" unicode="o" horiz-adv-x="569" 
d="M534 263q0 -132 -71 -205q-66 -69 -179 -69q-112 0 -179 69q-70 73 -70 205q0 133 70 205q66 68 179 68t179 -68q71 -72 71 -205zM355 263q0 127 -71 127t-71 -127q0 -128 71 -128t71 128z" />
    <glyph glyph-name="p" unicode="p" horiz-adv-x="572" 
d="M535 264q0 -275 -182 -275q-56 0 -117 46v-156l-180 -72v718h180v-37q62 48 124 48q79 0 125 -63q50 -70 50 -209zM357 258q0 75 -14 104q-13 26 -43 26q-32 0 -64 -25v-201q32 -25 65 -25q30 0 43 25.5t13 95.5z" />
    <glyph glyph-name="q" unicode="q" horiz-adv-x="572" 
d="M516 -121l-181 -72v230q-60 -48 -124 -48q-79 0 -124 63q-50 70 -50 209q0 275 181 275q56 0 117 -46v35h181v-646zM335 162v201q-30 25 -64 25q-30 0 -42 -24q-15 -27 -15 -97q0 -75 14 -102.5t44 -27.5q33 0 63 25z" />
    <glyph glyph-name="r" unicode="r" horiz-adv-x="448" 
d="M433 514l-42 -187q-40 44 -84 44q-71 0 -71 -85v-286h-180v525h180v-38q51 49 112 49q49 0 85 -22z" />
    <glyph glyph-name="s" unicode="s" horiz-adv-x="523" 
d="M479 166q0 -177 -217 -177q-108 0 -219 43l42 136q104 -46 181 -46q48 0 48 24q0 22 -42 33q-127 34 -170 68q-48 38 -48 117q0 172 214 172q96 0 202 -38l-40 -139q-101 44 -167 44q-44 0 -44 -23q0 -13 9.5 -20t42.5 -16q118 -32 159 -65q49 -38 49 -113z" />
    <glyph glyph-name="t" unicode="t" horiz-adv-x="450" 
d="M401 170l-23 -153q-58 -28 -130 -28t-105.5 39.5t-33.5 127.5v228h-80v141h80v133l175 71v-204h114v-141h-114v-190q0 -52 45 -52q31 0 72 28z" />
    <glyph glyph-name="u" unicode="u" horiz-adv-x="590" 
d="M534 0h-181v35q-59 -46 -131 -46q-170 0 -170 215v321h181v-298q0 -86 60 -86t60 84v300h181v-525z" />
    <glyph glyph-name="v" unicode="v" horiz-adv-x="571" 
d="M556 525l-182 -525h-177l-182 525h191l47 -193q26 -107 32 -157q8 56 33 157l48 193h190z" />
    <glyph glyph-name="w" unicode="w" horiz-adv-x="741" 
d="M724 525l-148 -525h-146l-22 107q-22 109 -39 214q-13 -77 -40 -216l-22 -105h-142l-148 525h174l15 -78q1 -6 34 -214q13 77 41 216l17 76h148l16 -76q10 -46 41 -216q12 77 35 214l14 78h172z" />
    <glyph glyph-name="x" unicode="x" horiz-adv-x="574" 
d="M560 0h-196l-26 48q-37 68 -55 110q-31 -67 -55 -110l-27 -48h-186l179 274l-159 251h196l6 -12q21 -40 54 -118q8 23 56 118l6 12h187l-161 -243z" />
    <glyph glyph-name="y" unicode="y" horiz-adv-x="590" 
d="M575 525l-254 -710h-172l66 163l-200 547h191l50 -187q32 -119 40 -187q10 73 41 189l49 185h189z" />
    <glyph glyph-name="z" unicode="z" horiz-adv-x="565" 
d="M508 0h-456v125l115 125q70 76 129 133q-132 -4 -135 -4h-97v146h444v-125l-115 -125q-70 -76 -129 -133q132 4 135 4h109v-146z" />
    <glyph glyph-name="braceleft" unicode="{" horiz-adv-x="510" 
d="M456 -110q-316 0 -316 209v75q0 49 -59 49h-34v150h34q59 0 59 49v74q0 209 316 209v-116q-70 -8 -93.5 -34.5t-23.5 -85.5v-24q0 -81 -33 -112q-24 -23 -93 -35q69 -12 93 -35q33 -32 33 -113v-24q0 -59 23 -84q24 -28 94 -36v-116z" />
    <glyph glyph-name="bar" unicode="|" horiz-adv-x="324" 
d="M251 -185h-178v985h178v-985z" />
    <glyph glyph-name="braceright" unicode="}" horiz-adv-x="510" 
d="M463 222h-34q-59 0 -59 -49v-74q0 -209 -316 -209v116q70 8 95 36q22 25 22 84v24q0 81 33 113q24 22 93 34q-69 12 -93 35q-33 32 -33 113v24q0 59 -22 84q-25 28 -95 36v116q316 0 316 -209v-75q0 -49 59 -49h34v-150z" />
    <glyph glyph-name="asciitilde" unicode="~" horiz-adv-x="582" 
d="M537 437q-40 -97 -75.5 -136t-83.5 -39q-28 0 -47 8q-9 3 -43 24l-19 11q-40 24 -54 24q-20 0 -38 -28q-2 -2 -23 -44l-109 48q40 97 75.5 136t83.5 39q28 0 47 -8q9 -3 43 -24l19 -11q40 -24 54 -24q20 0 38 28q2 2 23 44z" />
    <glyph glyph-name="exclamdown" unicode="&#xa1;" horiz-adv-x="565" 
d="M508 0h-456v125l115 125q70 76 129 133q-132 -4 -135 -4h-97v146h444v-125l-115 -125q-70 -76 -129 -133q132 4 135 4h109v-146zM490 755l-131 -160h-142l-131 160h120l83 -64l83 64h118z" />
    <glyph glyph-name="cent" unicode="&#xa2;" horiz-adv-x="520" 
d="M492 207q-62 -92 -133 -114v-104h-174v108q-150 54 -150 260q0 203 150 256v98h174v-92q74 -24 128 -110l-124 -94q-20 38 -35 51q-18 17 -46 17q-69 0 -69 -129q0 -126 74 -126q45 0 91 68z" />
    <glyph glyph-name="sterling" unicode="&#xa3;" horiz-adv-x="694" 
d="M649 634l-82 -141q-89 60 -192 60q-79 0 -79 -53q0 -21 15 -46q20 -33 31 -60h153v-135h-144q-12 -63 -52 -111h334v-148h-552v117q79 57 92 142h-92v135h76q-6 14 -21 39q-30 52 -30 99q0 85 69 132t202 47q155 0 272 -77z" />
    <glyph glyph-name="fraction" unicode="&#x2044;" horiz-adv-x="526" 
d="M591 700l-439 -700h-217l439 700h217z" />
    <glyph glyph-name="yen" unicode="&#xa5;" horiz-adv-x="726" 
d="M710 700l-254 -444v-17h160v-145h-160v-94h-186v94h-160v145h160v14l-254 447h224l50 -106q51 -107 74 -181q22 70 74 181l50 106h222z" />
    <glyph glyph-name="florin" unicode="&#x192;" horiz-adv-x="433" 
d="M384 573q-24 11 -59 11q-39 0 -39 -33v-26h86v-141h-83v-506l-177 -71v577h-61v141h61v36q0 80 36.5 115t116.5 35q77 0 119 -22v-116z" />
    <glyph glyph-name="section" unicode="&#xa7;" horiz-adv-x="722" 
d="M667 261q0 -100 -102 -171q16 -32 16 -81q0 -77 -54 -123q-59 -50 -170 -50q-63 0 -128.5 17.5t-106.5 43.5l59 136q92 -52 185 -52q48 0 48 22q0 15 -12 24q-17 13 -70 30q-174 57 -224 97q-53 43 -53 132q0 100 101 171q-15 33 -15 81q0 77 54 123q59 50 170 50
q63 0 130 -18q64 -17 105 -43l-59 -136q-92 52 -185 52q-48 0 -48 -22q0 -15 12 -24q17 -13 70 -30q174 -57 224 -97q53 -43 53 -132zM490 246q0 26 -25 43t-107 43q-57 18 -90 34q-36 -27 -36 -65q0 -26 25 -43t107 -43q57 -18 90 -34q36 27 36 65z" />
    <glyph glyph-name="currency" unicode="&#xa4;" 
d="M811 354l-159 -137q-22 -19 -40 -7q-17 12 -10 43l8 36h-132v-113l36 8q31 7 43 -10q12 -18 -7 -40l-137 -159l-137 159q-19 22 -7 40q12 17 43 10l36 -8v113h-132l8 -36q7 -31 -10 -43q-18 -12 -40 7l-159 137l159 137q22 19 40 7q17 -12 10 -43l-8 -36h132v105l-36 -8
q-31 -7 -43 10q-12 18 7 40l137 159l137 -159q19 -22 7 -40q-12 -17 -43 -10l-36 8v-105h132l-8 36q-7 31 10 43q18 12 40 -7z" />
    <glyph glyph-name="quotesingle" unicode="'" horiz-adv-x="343" 
d="M281 700l-39 -327h-141l-39 327h219z" />
    <glyph glyph-name="quotedblleft" unicode="&#x201c;" horiz-adv-x="608" 
d="M544 700l-14 -318h-205l96 318h123zM260 700l-14 -318h-205l96 318h123z" />
    <glyph glyph-name="guillemotleft" unicode="&#xab;" horiz-adv-x="694" 
d="M653 0h-195l-127 262l127 263h195l-131 -262zM352 0h-195l-127 262l127 263h195l-131 -262z" />
    <glyph glyph-name="guilsinglleft" unicode="&#x2039;" horiz-adv-x="393" 
d="M352 0h-195l-127 262l127 263h195l-131 -262z" />
    <glyph glyph-name="guilsinglright" unicode="&#x203a;" horiz-adv-x="393" 
d="M363 263l-127 -263h-195l131 262l-131 263h195z" />
    <glyph glyph-name="fi" unicode="&#xf001;" horiz-adv-x="680" 
d="M634 652q0 -41 -29 -65t-76 -24q-45 0 -74 24t-29 65q0 38 29.5 62.5t73.5 24.5q46 0 75.5 -24.5t29.5 -62.5zM619 0h-180v525h180v-525zM354 588q-24 11 -52 11q-36 0 -36 -33v-41h81v-141h-78v-384h-177v384h-56v141h56v51q0 80 35.5 115t112.5 35q72 0 114 -22v-116z
" />
    <glyph glyph-name="fl" unicode="&#xf002;" horiz-adv-x="680" 
d="M619 0h-180v657l180 72v-729zM354 588q-24 11 -52 11q-36 0 -36 -33v-41h81v-141h-78v-384h-177v384h-56v141h56v51q0 80 35.5 115t112.5 35q72 0 114 -22v-116z" />
    <glyph glyph-name="endash" unicode="&#x2013;" horiz-adv-x="499" 
d="M444 268h-376v180h376v-180z" />
    <glyph glyph-name="dagger" unicode="&#x2020;" horiz-adv-x="520" 
d="M492 114q-46 -68 -94 -96.5t-117 -28.5q-116 0 -181 71.5t-65 203.5q0 125 62 196q66 76 188 76q127 0 202 -120l-124 -94q-20 38 -35 51q-18 17 -46 17q-69 0 -69 -129q0 -126 74 -126q45 0 91 68zM495 755l-157 -160h-128l72 160h213z" />
    <glyph glyph-name="daggerdbl" unicode="&#x2021;" horiz-adv-x="686" 
d="M652 170q-92 -181 -291 -181q-152 0 -237 103q-82 97 -82 258q0 166 90 265q87 96 230 96q122 0 191 -53q58 -47 97 -153l-176 -69q-21 55 -42 77q-27 29 -71 29q-58 0 -88 -54q-28 -50 -28 -138q0 -86 28 -136q30 -56 90 -56q43 0 71 25q23 19 54 74zM581 905l-157 -160
h-128l72 160h213z" />
    <glyph glyph-name="periodcentered" unicode="&#xb7;" horiz-adv-x="314" 
d="M272 367q0 -49 -32.5 -82t-82.5 -33q-49 0 -82 33t-33 82t32.5 81t82.5 32t82.5 -32t32.5 -81z" />
    <glyph glyph-name="periodcentered" unicode="&#x2219;" horiz-adv-x="314" 
d="M272 367q0 -49 -32.5 -82t-82.5 -33q-49 0 -82 33t-33 82t32.5 81t82.5 32t82.5 -32t32.5 -81z" />
    <glyph glyph-name="paragraph" unicode="&#xb6;" horiz-adv-x="724" 
d="M645 -185h-139v768h-59v-768h-139v446h-44q-96 0 -160 57q-67 61 -67 163q0 101 68 162q63 57 159 57h381v-885z" />
    <glyph glyph-name="bullet" unicode="&#x2022;" horiz-adv-x="589" 
d="M524 366q0 -97 -66.5 -163t-163.5 -66t-163 66t-66 163t66 164t163 67t163.5 -67t66.5 -164z" />
    <glyph glyph-name="quotesinglbase" unicode="&#x201a;" horiz-adv-x="324" 
d="M280 209l-96 -318h-123l14 318h205z" />
    <glyph glyph-name="quotedblbase" unicode="&#x201e;" horiz-adv-x="608" 
d="M564 209l-96 -318h-123l14 318h205zM280 209l-96 -318h-123l14 318h205z" />
    <glyph glyph-name="quotedblright" unicode="&#x201d;" horiz-adv-x="608" 
d="M567 700l-96 -318h-123l14 318h205zM283 700l-96 -318h-123l14 318h205z" />
    <glyph glyph-name="guillemotright" unicode="&#xbb;" horiz-adv-x="694" 
d="M664 262l-127 -262h-195l131 263l-131 262h195zM363 262l-127 -262h-195l131 263l-131 262h195z" />
    <glyph glyph-name="ellipsis" unicode="&#x2026;" horiz-adv-x="942" 
d="M900 104q0 -49 -32.5 -82t-82.5 -33q-49 0 -82 33t-33 82t32.5 81t82.5 32t82.5 -32t32.5 -81zM586 104q0 -49 -32.5 -82t-82.5 -33q-49 0 -82 33t-33 82t32.5 81t82.5 32t82.5 -32t32.5 -81zM272 104q0 -49 -32.5 -82t-82.5 -33q-49 0 -82 33t-33 82t32.5 81t82.5 32
t82.5 -32t32.5 -81z" />
    <glyph glyph-name="perthousand" unicode="&#x2030;" horiz-adv-x="1535" 
d="M1515 208q0 -105 -60 -164q-56 -55 -148 -55t-147 54q-59 58 -59 163t60 164q56 55 148 55t147 -54q59 -58 59 -163zM1050 208q0 -105 -60 -164q-56 -55 -148 -55t-147 54q-59 58 -59 163t60 164q56 55 148 55t147 -54q59 -58 59 -163zM831 700l-429 -700h-153l429 700
h153zM444 494q0 -105 -60 -164q-56 -55 -148 -55t-147 54q-59 58 -59 163t60 164q56 55 148 55t147 -54q59 -58 59 -163zM1368 206q0 110 -60 110q-32 0 -46 -22q-14 -25 -14 -86t14.5 -85.5t46.5 -24.5t45.5 23.5t13.5 84.5zM903 206q0 110 -60 110q-32 0 -46 -22
q-14 -25 -14 -86t14.5 -85.5t46.5 -24.5t45.5 23.5t13.5 84.5zM297 492q0 110 -60 110q-32 0 -46 -22q-14 -25 -14 -86t14.5 -85.5t46.5 -24.5t45.5 23.5t13.5 84.5z" />
    <glyph glyph-name="questiondown" unicode="&#xbf;" horiz-adv-x="602" 
d="M429 607q0 -44 -29.5 -73t-74.5 -29t-74.5 29t-29.5 73t29.5 74t74.5 30t74.5 -30t29.5 -74zM581 75q-135 -86 -285 -86q-125 0 -195 49t-70 143q0 59 29 96t95 69q79 39 79 104h179q0 -67 -27 -108q-29 -45 -103 -80q-62 -29 -62 -62q0 -48 78 -48q95 0 193 66z" />
    <glyph glyph-name="grave" unicode="`" horiz-adv-x="500" 
d="M376 595h-128l-157 160h213z" />
    <glyph glyph-name="acute" unicode="&#xb4;" horiz-adv-x="500" 
d="M409 755l-157 -160h-128l72 160h213z" />
    <glyph glyph-name="circumflex" unicode="&#x2c6;" horiz-adv-x="500" 
d="M452 595h-120l-83 64l-83 -64h-118l131 160h142z" />
    <glyph glyph-name="tilde" unicode="&#x2dc;" horiz-adv-x="500" 
d="M462 749q0 -68 -35.5 -112.5t-95.5 -44.5q-47 0 -89 25q-49 29 -61 29q-30 0 -37 -51h-103q0 68 35.5 112.5t95.5 44.5q47 0 89 -25q49 -29 61 -29q31 0 37 51h103z" />
    <glyph glyph-name="macron" unicode="&#xaf;" horiz-adv-x="500" 
d="M413 610h-326v115h326v-115z" />
    <glyph glyph-name="macron" unicode="&#x2c9;" horiz-adv-x="500" 
d="M413 610h-326v115h326v-115z" />
    <glyph glyph-name="breve" unicode="&#x2d8;" horiz-adv-x="500" 
d="M443 755q-33 -160 -194 -160q-159 0 -192 160h105q20 -61 89 -61q67 0 87 61h105z" />
    <glyph glyph-name="dotaccent" unicode="&#x2d9;" horiz-adv-x="500" 
d="M344 686q0 -36 -28.5 -63.5t-65.5 -27.5t-65.5 27.5t-28.5 63.5q0 38 28.5 65.5t65.5 27.5q38 0 66 -27t28 -66z" />
    <glyph glyph-name="dieresis" unicode="&#xa8;" horiz-adv-x="500" 
d="M458 686q0 -34 -26.5 -60t-61.5 -26q-36 0 -63 26t-27 60q0 36 27 62t63 26q35 0 61.5 -26t26.5 -62zM220 686q0 -34 -27 -60t-62 -26t-62 26t-27 60q0 36 26.5 62t62.5 26t62.5 -26t26.5 -62z" />
    <glyph glyph-name="ring" unicode="&#x2da;" horiz-adv-x="500" 
d="M392 733q0 -59 -41 -98.5t-101 -39.5t-101 39.5t-41 98.5t41 99t101 40t101 -40t41 -99zM305 733q0 60 -55 60t-55 -60q0 -59 55 -59t55 59z" />
    <glyph glyph-name="cedilla" unicode="&#xb8;" horiz-adv-x="500" 
d="M370 -106q0 -87 -111 -87q-73 0 -147 36l19 46q52 -24 101 -24q46 0 46 27q0 23 -22 23q-16 0 -37 -14l-38 26l20 73h61l-12 -42q18 9 42 9q78 0 78 -73z" />
    <glyph glyph-name="hungarumlaut" unicode="&#x2dd;" horiz-adv-x="500" 
d="M510 755l-147 -160h-123l77 160h193zM285 755l-147 -160h-123l77 160h193z" />
    <glyph glyph-name="ogonek" unicode="&#x2db;" horiz-adv-x="500" 
d="M386 -148q-66 -45 -141 -45q-46 0 -74 22t-28 56q0 55 70 115h61q-28 -60 -28 -96q0 -31 38 -31q37 0 85 21z" />
    <glyph glyph-name="caron" unicode="&#x2c7;" horiz-adv-x="500" 
d="M452 755l-131 -160h-142l-131 160h120l83 -64l83 64h118z" />
    <glyph glyph-name="emdash" unicode="&#x2014;" horiz-adv-x="656" 
d="M588 268h-520v180h520v-180z" />
    <glyph glyph-name="AE" unicode="&#xc6;" horiz-adv-x="1071" 
d="M1018 0h-506v76h-242l-47 -76h-209l470 700h527v-163h-324v-93h187v-161h-187v-120h331v-163zM514 492q-24 -53 -85 -156l-68 -114h151v115q0 22 1 82.5t1 72.5z" />
    <glyph glyph-name="ordfeminine" unicode="&#xaa;" horiz-adv-x="500" 
d="M433 276h-138v29q-48 -37 -103 -37q-64 0 -101 38t-37 108q0 67 43 104q40 35 110 35q47 0 88 -18v21q0 50 -60 50q-61 0 -118 -31l-38 97q81 39 183 39q171 0 171 -158v-277zM295 391v59q-27 12 -62 12q-45 0 -45 -45q0 -47 45 -47q37 0 62 21z" />
    <glyph glyph-name="Lslash" unicode="&#x141;" horiz-adv-x="635" 
d="M597 0h-506v230l-56 -37v168l56 37v302h191v-202l98 62v-168l-98 -62v-161h315v-169z" />
    <glyph glyph-name="Oslash" unicode="&#xd8;" horiz-adv-x="732" 
d="M705 750l-89 -150q74 -94 74 -249q0 -171 -89.5 -266.5t-235.5 -95.5q-52 0 -102 14l-31 -53h-208l90 153q-72 92 -72 246q0 171 91 268q88 94 234 94q54 0 99 -13l31 52h208zM489 349q0 94 -32.5 143.5t-91.5 49.5q-122 0 -122 -191q0 -94 32.5 -143.5t91.5 -49.5
q122 0 122 191z" />
    <glyph glyph-name="OE" unicode="&#x152;" horiz-adv-x="1063" 
d="M1010 0h-478v65q-55 -76 -177 -76q-137 0 -223 93q-90 97 -90 267t91 268q87 94 224 94q120 0 175 -76v65h471v-163h-334v-93h197v-161h-197v-120h341v-163zM489 349q0 94 -32.5 143.5t-91.5 49.5q-122 0 -122 -191q0 -94 32.5 -143.5t91.5 -49.5q122 0 122 191z" />
    <glyph glyph-name="ordmasculine" unicode="&#xba;" horiz-adv-x="502" 
d="M453 490q0 -107 -55.5 -164.5t-146.5 -57.5t-145 56q-57 59 -57 166t57 166q54 55 145 55t145 -55q57 -59 57 -166zM309 490q0 103 -58 103t-58 -103q0 -104 58 -104t58 104z" />
    <glyph glyph-name="ae" unicode="&#xe6;" horiz-adv-x="847" 
d="M812 246q0 -26 -1 -35h-308q9 -84 89 -84q65 0 136 37l69 -115q-103 -60 -214 -60q-110 0 -162 75q-73 -75 -193 -75q-190 0 -190 181q0 83 53 128q50 43 136 43q60 0 109 -22v26q0 62 -74 62q-77 0 -146 -38l-47 119q99 48 221 48q105 0 146 -64q52 64 147 64
q107 0 166 -72q63 -75 63 -218zM653 323q-7 42 -23 60q-19 20 -57 20q-61 0 -70 -80h150zM336 142v72q-33 15 -77 15q-56 0 -56 -56q0 -57 56 -57q45 0 77 26z" />
    <glyph glyph-name="dotlessi" unicode="&#x131;" horiz-adv-x="302" 
d="M241 0h-180v525h180v-525z" />
    <glyph glyph-name="lslash" unicode="&#x142;" horiz-adv-x="342" 
d="M320 346l-62 -35v-311h-174v234l-62 -35v168l62 35v255l174 72v-250l62 35v-168z" />
    <glyph glyph-name="oslash" unicode="&#xf8;" horiz-adv-x="569" 
d="M550 575l-73 -123q57 -71 57 -189q0 -132 -71 -205q-66 -69 -179 -69q-43 0 -76 10l-29 -49h-163l74 125q-55 72 -55 188q0 133 70 205q66 68 179 68q40 0 74 -9l29 48h163zM355 263q0 127 -71 127t-71 -127q0 -128 71 -128t71 128z" />
    <glyph glyph-name="oe" unicode="&#x153;" horiz-adv-x="862" 
d="M827 246q0 -26 -1 -35h-308q9 -84 89 -84q65 0 136 37l69 -115q-103 -60 -209 -60t-164 76q-64 -76 -160 -76q-108 0 -174 69q-70 74 -70 205q0 132 70 205q66 68 174 68q112 0 163 -74q56 74 156 74q106 0 166 -72q63 -76 63 -218zM668 323q-7 42 -23 60q-19 20 -57 20
q-61 0 -70 -80h150zM355 263q0 127 -71 127t-71 -127q0 -128 71 -128t71 128z" />
    <glyph glyph-name="germandbls" unicode="&#xdf;" horiz-adv-x="601" 
d="M566 234q0 -234 -261 -234h-15v141h15q84 0 84 90t-93 90h-6v136h6q47 0 47 54q0 69 -55 69q-52 0 -52 -84v-617l-180 -72v684q0 118 64 179q59 56 168 56q100 0 159 -44q65 -49 65 -141t-84 -139q138 -31 138 -168z" />
    <glyph glyph-name="brokenbar" unicode="&#xa6;" horiz-adv-x="350" 
d="M274 0h-198v700h198v-700zM391 905l-157 -160h-128l72 160h213z" />
    <glyph glyph-name="copyright" unicode="&#xa9;" horiz-adv-x="350" 
d="M274 0h-198v700h198v-700zM480 730h-120l-83 64l-83 -64h-118l131 160h142z" />
    <glyph glyph-name="logicalnot" unicode="&#xac;" horiz-adv-x="350" 
d="M274 0h-198v700h198v-700zM492 823q0 -34 -26.5 -60t-61.5 -26q-36 0 -63 26t-27 60q0 36 27 62t63 26q35 0 61.5 -26t26.5 -62zM254 823q0 -34 -27 -60t-62 -26t-62 26t-27 60q0 36 26.5 62t62.5 26t62.5 -26t26.5 -62z" />
    <glyph glyph-name="registered" unicode="&#xae;" horiz-adv-x="742" 
d="M696 354q0 -192 -96 -276q-89 -78 -282 -78h-227v285h-61v150h61v265h245q176 0 263 -74q97 -84 97 -272zM497 351q0 98 -36.5 140.5t-125.5 42.5h-58v-99h88v-150h-88v-119h52q92 0 130 41t38 144z" />
    <glyph glyph-name="degree" unicode="&#xb0;" horiz-adv-x="756" 
d="M685 0h-158l-167 231q-70 97 -109 164q6 -37 6 -181v-214h-186v700h171l154 -207q78 -104 109 -165q-6 37 -6 181v191h186v-700zM592 896q0 -68 -35.5 -112.5t-95.5 -44.5q-47 0 -89 25q-49 29 -61 29q-30 0 -37 -51h-103q0 68 35.5 112.5t95.5 44.5q47 0 89 -25
q49 -29 61 -29q31 0 37 51h103z" />
    <glyph glyph-name="plusminus" unicode="&#xb1;" horiz-adv-x="732" 
d="M690 351q0 -171 -89.5 -266.5t-235.5 -95.5t-233 93q-90 96 -90 267t91 268q88 94 234 94t233 -93q90 -96 90 -267zM489 349q0 94 -32.5 143.5t-91.5 49.5q-122 0 -122 -191q0 -94 32.5 -143.5t91.5 -49.5q122 0 122 191zM432 745h-128l-157 160h213z" />
    <glyph glyph-name="twosuperior" unicode="&#xb2;" horiz-adv-x="667" 
d="M614 0h-543v700h536v-163h-344v-93h207v-161h-207v-120h351v-163zM539 905l-157 -160h-128l72 160h213z" />
    <glyph glyph-name="threesuperior" unicode="&#xb3;" horiz-adv-x="667" 
d="M614 0h-543v700h536v-163h-344v-93h207v-161h-207v-120h351v-163zM525 745h-120l-83 64l-83 -64h-118l131 160h142z" />
    <glyph glyph-name="onesuperior" unicode="&#xb9;" horiz-adv-x="667" 
d="M614 0h-543v700h536v-163h-344v-93h207v-161h-207v-120h351v-163zM419 745h-128l-157 160h213z" />
    <glyph glyph-name="onequarter" unicode="&#xbc;" horiz-adv-x="762" 
d="M733 0h-210l-38 123h-210l-38 -123h-208l254 700h196zM438 277l-13 46q-36 126 -45 175q-9 -49 -45 -175l-13 -46h116zM590 836q0 -34 -26.5 -60t-61.5 -26q-36 0 -63 26t-27 60q0 36 27 62t63 26q35 0 61.5 -26t26.5 -62zM352 836q0 -34 -27 -60t-62 -26t-62 26t-27 60
q0 36 26.5 62t62.5 26t62.5 -26t26.5 -62z" />
    <glyph glyph-name="onehalf" unicode="&#xbd;" horiz-adv-x="762" 
d="M733 0h-210l-38 123h-210l-38 -123h-208l238 657q-28 38 -28 84q0 59 41 99t101 40t101 -40t41 -99q0 -48 -28 -84zM436 741q0 60 -55 60t-55 -60q0 -59 55 -59t55 59zM438 277l-13 46q-36 126 -45 175q-9 -49 -45 -175l-13 -46h116z" />
    <glyph glyph-name="threequarters" unicode="&#xbe;" horiz-adv-x="686" 
d="M652 170q-90 -175 -277 -181l-9 -31q18 9 42 9q78 0 78 -73q0 -87 -111 -87q-73 0 -147 36l19 46q52 -24 101 -24q46 0 46 27q0 23 -22 23q-16 0 -37 -14l-38 26l18 65q-130 15 -203 115q-70 96 -70 243q0 166 90 265q87 96 230 96q122 0 191 -53q58 -47 97 -153
l-176 -69q-21 55 -42 77q-27 29 -71 29q-58 0 -88 -54q-28 -50 -28 -138q0 -86 28 -136q30 -56 90 -56q43 0 71 25q23 19 54 74z" />
    <glyph glyph-name="Agrave" unicode="&#xc0;" horiz-adv-x="732" 
d="M690 351q0 -171 -89.5 -266.5t-235.5 -95.5t-233 93q-90 96 -90 267t91 268q88 94 234 94t233 -93q90 -96 90 -267zM489 349q0 94 -32.5 143.5t-91.5 49.5q-122 0 -122 -191q0 -94 32.5 -143.5t91.5 -49.5q122 0 122 191zM568 740h-120l-83 64l-83 -64h-118l131 160h142z
" />
    <glyph glyph-name="Aacute" unicode="&#xc1;" horiz-adv-x="732" 
d="M690 351q0 -171 -89.5 -266.5t-235.5 -95.5t-233 93q-90 96 -90 267t91 268q88 94 234 94t233 -93q90 -96 90 -267zM489 349q0 94 -32.5 143.5t-91.5 49.5q-122 0 -122 -191q0 -94 32.5 -143.5t91.5 -49.5q122 0 122 191zM571 899q0 -68 -35.5 -112.5t-95.5 -44.5
q-47 0 -89 25q-49 29 -61 29q-30 0 -37 -51h-103q0 68 35.5 112.5t95.5 44.5q47 0 89 -25q49 -29 61 -29q31 0 37 51h103z" />
    <glyph glyph-name="Acircumflex" unicode="&#xc2;" horiz-adv-x="732" 
d="M690 351q0 -171 -89.5 -266.5t-235.5 -95.5t-233 93q-90 96 -90 267t91 268q88 94 234 94t233 -93q90 -96 90 -267zM489 349q0 94 -32.5 143.5t-91.5 49.5q-122 0 -122 -191q0 -94 32.5 -143.5t91.5 -49.5q122 0 122 191zM574 836q0 -34 -26.5 -60t-61.5 -26
q-36 0 -63 26t-27 60q0 36 27 62t63 26q35 0 61.5 -26t26.5 -62zM336 836q0 -34 -27 -60t-62 -26t-62 26t-27 60q0 36 26.5 62t62.5 26t62.5 -26t26.5 -62z" />
    <glyph glyph-name="Atilde" unicode="&#xc3;" 
d="M811 354l-159 -137q-22 -19 -40 -7q-17 12 -10 43l8 36h-132v-113l36 8q31 7 43 -10q12 -18 -7 -40l-137 -159l-137 159q-19 22 -7 40q12 17 43 10l36 -8v113h-132l8 -36q7 -31 -10 -43q-18 -12 -40 7l-159 137l159 137q22 19 40 7q17 -12 10 -43l-8 -36h132v105l-36 -8
q-31 -7 -43 10q-12 18 7 40l137 159l137 -159q19 -22 7 -40q-12 -17 -43 -10l-36 8v-105h132l-8 36q-7 31 10 43q18 12 40 -7z" />
    <glyph glyph-name="Adieresis" unicode="&#xc4;" horiz-adv-x="748" 
d="M681 299q0 -159 -88 -238q-80 -72 -221 -72q-140 0 -218 72q-87 79 -87 238v401h198v-401q0 -139 110 -139q108 0 108 139v401h198v-401zM448 730h-128l-157 160h213z" />
    <glyph glyph-name="Aring" unicode="&#xc5;" horiz-adv-x="748" 
d="M681 299q0 -159 -88 -238q-80 -72 -221 -72q-140 0 -218 72q-87 79 -87 238v401h198v-401q0 -139 110 -139q108 0 108 139v401h198v-401zM586 890l-157 -160h-128l72 160h213z" />
    <glyph glyph-name="Ccedilla" unicode="&#xc7;" horiz-adv-x="748" 
d="M681 299q0 -159 -88 -238q-80 -72 -221 -72q-140 0 -218 72q-87 79 -87 238v401h198v-401q0 -139 110 -139q108 0 108 139v401h198v-401zM576 745h-120l-83 64l-83 -64h-118l131 160h142z" />
    <glyph glyph-name="Egrave" unicode="&#xc8;" horiz-adv-x="748" 
d="M681 299q0 -159 -88 -238q-80 -72 -221 -72q-140 0 -218 72q-87 79 -87 238v401h198v-401q0 -139 110 -139q108 0 108 139v401h198v-401zM582 836q0 -34 -26.5 -60t-61.5 -26q-36 0 -63 26t-27 60q0 36 27 62t63 26q35 0 61.5 -26t26.5 -62zM344 836q0 -34 -27 -60
t-62 -26t-62 26t-27 60q0 36 26.5 62t62.5 26t62.5 -26t26.5 -62z" />
    <glyph glyph-name="Eacute" unicode="&#xc9;" horiz-adv-x="746" 
d="M730 700l-259 -439v-261h-196v258l-259 442h224l54 -106q60 -118 80 -181q20 63 80 181l54 106h222zM591 903l-157 -160h-128l72 160h213z" />
    <glyph glyph-name="Ecircumflex" unicode="&#xca;" horiz-adv-x="686" 
d="M652 170q-92 -181 -291 -181q-152 0 -237 103q-82 97 -82 258q0 166 90 265q87 96 230 96q122 0 191 -53q58 -47 97 -153l-176 -69q-21 55 -42 77q-27 29 -71 29q-58 0 -88 -54q-28 -50 -28 -138q0 -86 28 -136q30 -56 90 -56q43 0 71 25q23 19 54 74zM565 907l-131 -160
h-142l-131 160h120l83 -64l83 64h118z" />
    <glyph glyph-name="Edieresis" unicode="&#xcb;" horiz-adv-x="558" 
d="M506 0h-170v35q-60 -46 -128 -46q-78 0 -124 47t-46 134q0 83 53 128q50 43 136 43q60 0 109 -22v26q0 62 -74 62q-77 0 -146 -38l-47 119q99 48 226 48q211 0 211 -195v-341zM336 142v72q-33 15 -77 15q-56 0 -56 -56q0 -57 56 -57q45 0 77 26zM377 595h-128l-157 160
h213z" />
    <glyph glyph-name="Igrave" unicode="&#xcc;" horiz-adv-x="558" 
d="M506 0h-170v35q-60 -46 -128 -46q-78 0 -124 47t-46 134q0 83 53 128q50 43 136 43q60 0 109 -22v26q0 62 -74 62q-77 0 -146 -38l-47 119q99 48 226 48q211 0 211 -195v-341zM336 142v72q-33 15 -77 15q-56 0 -56 -56q0 -57 56 -57q45 0 77 26zM475 755l-157 -160h-128
l72 160h213z" />
    <glyph glyph-name="Iacute" unicode="&#xcd;" horiz-adv-x="558" 
d="M506 0h-170v35q-60 -46 -128 -46q-78 0 -124 47t-46 134q0 83 53 128q50 43 136 43q60 0 109 -22v26q0 62 -74 62q-77 0 -146 -38l-47 119q99 48 226 48q211 0 211 -195v-341zM336 142v72q-33 15 -77 15q-56 0 -56 -56q0 -57 56 -57q45 0 77 26zM482 590h-120l-83 64
l-83 -64h-118l131 160h142z" />
    <glyph glyph-name="Icircumflex" unicode="&#xce;" horiz-adv-x="558" 
d="M506 0h-170v35q-60 -46 -128 -46q-78 0 -124 47t-46 134q0 83 53 128q50 43 136 43q60 0 109 -22v26q0 62 -74 62q-77 0 -146 -38l-47 119q99 48 226 48q211 0 211 -195v-341zM336 142v72q-33 15 -77 15q-56 0 -56 -56q0 -57 56 -57q45 0 77 26zM494 749
q0 -68 -35.5 -112.5t-95.5 -44.5q-47 0 -89 25q-49 29 -61 29q-30 0 -37 -51h-103q0 68 35.5 112.5t95.5 44.5q47 0 89 -25q49 -29 61 -29q31 0 37 51h103z" />
    <glyph glyph-name="Idieresis" unicode="&#xcf;" horiz-adv-x="558" 
d="M506 0h-170v35q-60 -46 -128 -46q-78 0 -124 47t-46 134q0 83 53 128q50 43 136 43q60 0 109 -22v26q0 62 -74 62q-77 0 -146 -38l-47 119q99 48 226 48q211 0 211 -195v-341zM336 142v72q-33 15 -77 15q-56 0 -56 -56q0 -57 56 -57q45 0 77 26zM486 681q0 -34 -26.5 -60
t-61.5 -26q-36 0 -63 26t-27 60q0 36 27 62t63 26q35 0 61.5 -26t26.5 -62zM248 681q0 -34 -27 -60t-62 -26t-62 26t-27 60q0 36 26.5 62t62.5 26t62.5 -26t26.5 -62z" />
    <glyph glyph-name="Eth" unicode="&#xd0;" horiz-adv-x="558" 
d="M506 0h-170v35q-60 -46 -128 -46q-78 0 -124 47t-46 134q0 83 53 128q50 43 136 43q60 0 109 -22v26q0 62 -74 62q-77 0 -146 -38l-47 119q99 48 226 48q211 0 211 -195v-341zM336 142v72q-33 15 -77 15q-56 0 -56 -56q0 -57 56 -57q45 0 77 26zM423 733q0 -59 -41 -98.5
t-101 -39.5t-101 39.5t-41 98.5t41 99t101 40t101 -40t41 -99zM336 733q0 60 -55 60t-55 -60q0 -59 55 -59t55 59z" />
    <glyph glyph-name="Ntilde" unicode="&#xd1;" horiz-adv-x="520" 
d="M492 114q-44 -66 -90.5 -95t-113.5 -30l-9 -31q18 9 42 9q78 0 78 -73q0 -87 -111 -87q-73 0 -147 36l19 46q52 -24 101 -24q46 0 46 27q0 23 -22 23q-16 0 -37 -14l-38 26l18 66q-92 16 -142.5 85.5t-50.5 185.5q0 125 62 196q66 76 188 76q127 0 202 -120l-124 -94
q-20 38 -35 51q-18 17 -46 17q-69 0 -69 -129q0 -126 74 -126q45 0 91 68z" />
    <glyph glyph-name="Ograve" unicode="&#xd2;" horiz-adv-x="544" 
d="M509 246q0 -26 -1 -35h-308q9 -84 89 -84q65 0 136 37l69 -115q-103 -60 -214 -60q-116 0 -182 76q-63 73 -63 197q0 132 68 205q65 69 172 69q111 0 171 -72q63 -75 63 -218zM350 323q-7 42 -23 60q-19 20 -57 20q-61 0 -70 -80h150zM352 595h-128l-157 160h213z" />
    <glyph glyph-name="Oacute" unicode="&#xd3;" horiz-adv-x="544" 
d="M509 246q0 -26 -1 -35h-308q9 -84 89 -84q65 0 136 37l69 -115q-103 -60 -214 -60q-116 0 -182 76q-63 73 -63 197q0 132 68 205q65 69 172 69q111 0 171 -72q63 -75 63 -218zM350 323q-7 42 -23 60q-19 20 -57 20q-61 0 -70 -80h150zM485 755l-157 -160h-128l72 160h213
z" />
    <glyph glyph-name="Ocircumflex" unicode="&#xd4;" horiz-adv-x="544" 
d="M509 246q0 -26 -1 -35h-308q9 -84 89 -84q65 0 136 37l69 -115q-103 -60 -214 -60q-116 0 -182 76q-63 73 -63 197q0 132 68 205q65 69 172 69q111 0 171 -72q63 -75 63 -218zM350 323q-7 42 -23 60q-19 20 -57 20q-61 0 -70 -80h150zM478 585h-120l-83 64l-83 -64h-118
l131 160h142z" />
    <glyph glyph-name="Otilde" unicode="&#xd5;" horiz-adv-x="544" 
d="M509 246q0 -26 -1 -35h-308q9 -84 89 -84q65 0 136 37l69 -115q-103 -60 -214 -60q-116 0 -182 76q-63 73 -63 197q0 132 68 205q65 69 172 69q111 0 171 -72q63 -75 63 -218zM350 323q-7 42 -23 60q-19 20 -57 20q-61 0 -70 -80h150zM485 681q0 -34 -26.5 -60t-61.5 -26
q-36 0 -63 26t-27 60q0 36 27 62t63 26q35 0 61.5 -26t26.5 -62zM247 681q0 -34 -27 -60t-62 -26t-62 26t-27 60q0 36 26.5 62t62.5 26t62.5 -26t26.5 -62z" />
    <glyph glyph-name="Odieresis" unicode="&#xd6;" horiz-adv-x="302" 
d="M241 0h-180v525h180v-525zM346 595h-128l-157 160h213z" />
    <glyph glyph-name="multiply" unicode="&#xd7;" horiz-adv-x="302" 
d="M241 0h-180v525h180v-525zM358 755l-157 -160h-128l72 160h213z" />
    <glyph glyph-name="Ugrave" unicode="&#xd9;" horiz-adv-x="302" 
d="M241 0h-180v525h180v-525zM465 580h-120l-83 64l-83 -64h-118l131 160h142z" />
    <glyph glyph-name="Uacute" unicode="&#xda;" horiz-adv-x="302" 
d="M241 0h-180v525h180v-525zM477 676q0 -34 -26.5 -60t-61.5 -26q-36 0 -63 26t-27 60q0 36 27 62t63 26q35 0 61.5 -26t26.5 -62zM239 676q0 -34 -27 -60t-62 -26t-62 26t-27 60q0 36 26.5 62t62.5 26t62.5 -26t26.5 -62z" />
    <glyph glyph-name="Ucircumflex" unicode="&#xdb;" horiz-adv-x="572" 
d="M516 0h-181v37q-60 -48 -124 -48q-79 0 -124 63q-50 70 -50 209q0 275 181 275q56 0 117 -46v87h-65v107h65v46l181 -1v-45h56v-107h-56v-577zM335 162v201q-30 25 -64 25q-30 0 -42 -24q-15 -27 -15 -97q0 -75 14 -102.5t44 -27.5q33 0 63 25z" />
    <glyph glyph-name="Udieresis" unicode="&#xdc;" horiz-adv-x="590" 
d="M538 0h-181v298q0 86 -60 86q-61 0 -61 -84v-300h-180v525h180v-35q61 46 132 46q170 0 170 -215v-321zM515 749q0 -68 -35.5 -112.5t-95.5 -44.5q-47 0 -89 25q-49 29 -61 29q-30 0 -37 -51h-103q0 68 35.5 112.5t95.5 44.5q47 0 89 -25q49 -29 61 -29q31 0 37 51h103z
" />
    <glyph glyph-name="Yacute" unicode="&#xdd;" horiz-adv-x="569" 
d="M534 263q0 -132 -71 -205q-66 -69 -179 -69q-112 0 -179 69q-70 73 -70 205q0 133 70 205q66 68 179 68t179 -68q71 -72 71 -205zM355 263q0 127 -71 127t-71 -127q0 -128 71 -128t71 128zM353 595h-128l-157 160h213z" />
    <glyph glyph-name="Thorn" unicode="&#xde;" horiz-adv-x="569" 
d="M534 263q0 -132 -71 -205q-66 -69 -179 -69q-112 0 -179 69q-70 73 -70 205q0 133 70 205q66 68 179 68t179 -68q71 -72 71 -205zM355 263q0 127 -71 127t-71 -127q0 -128 71 -128t71 128zM496 755l-157 -160h-128l72 160h213z" />
    <glyph glyph-name="agrave" unicode="&#xe0;" horiz-adv-x="569" 
d="M534 263q0 -132 -71 -205q-66 -69 -179 -69q-112 0 -179 69q-70 73 -70 205q0 133 70 205q66 68 179 68t179 -68q71 -72 71 -205zM355 263q0 127 -71 127t-71 -127q0 -128 71 -128t71 128zM486 585h-120l-83 64l-83 -64h-118l131 160h142z" />
    <glyph glyph-name="aacute" unicode="&#xe1;" horiz-adv-x="569" 
d="M534 263q0 -132 -71 -205q-66 -69 -179 -69q-112 0 -179 69q-70 73 -70 205q0 133 70 205q66 68 179 68t179 -68q71 -72 71 -205zM355 263q0 127 -71 127t-71 -127q0 -128 71 -128t71 128zM495 749q0 -68 -35.5 -112.5t-95.5 -44.5q-47 0 -89 25q-49 29 -61 29
q-30 0 -37 -51h-103q0 68 35.5 112.5t95.5 44.5q47 0 89 -25q49 -29 61 -29q31 0 37 51h103z" />
    <glyph glyph-name="acircumflex" unicode="&#xe2;" horiz-adv-x="569" 
d="M534 263q0 -132 -71 -205q-66 -69 -179 -69q-112 0 -179 69q-70 73 -70 205q0 133 70 205q66 68 179 68t179 -68q71 -72 71 -205zM355 263q0 127 -71 127t-71 -127q0 -128 71 -128t71 128zM492 676q0 -34 -26.5 -60t-61.5 -26q-36 0 -63 26t-27 60q0 36 27 62t63 26
q35 0 61.5 -26t26.5 -62zM254 676q0 -34 -27 -60t-62 -26t-62 26t-27 60q0 36 26.5 62t62.5 26t62.5 -26t26.5 -62z" />
    <glyph glyph-name="atilde" unicode="&#xe3;" 
d="M811 354l-159 -137q-22 -19 -40 -7q-17 12 -10 43l8 36h-132v-113l36 8q31 7 43 -10q12 -18 -7 -40l-137 -159l-137 159q-19 22 -7 40q12 17 43 10l36 -8v113h-132l8 -36q7 -31 -10 -43q-18 -12 -40 7l-159 137l159 137q22 19 40 7q17 -12 10 -43l-8 -36h132v105l-36 -8
q-31 -7 -43 10q-12 18 7 40l137 159l137 -159q19 -22 7 -40q-12 -17 -43 -10l-36 8v-105h132l-8 36q-7 31 10 43q18 12 40 -7z" />
    <glyph glyph-name="adieresis" unicode="&#xe4;" horiz-adv-x="590" 
d="M534 0h-181v35q-59 -46 -131 -46q-170 0 -170 215v321h181v-298q0 -86 60 -86t60 84v300h181v-525zM370 595h-128l-157 160h213z" />
    <glyph glyph-name="aring" unicode="&#xe5;" horiz-adv-x="590" 
d="M534 0h-181v35q-59 -46 -131 -46q-170 0 -170 215v321h181v-298q0 -86 60 -86t60 84v300h181v-525zM503 755l-157 -160h-128l72 160h213z" />
    <glyph glyph-name="ccedilla" unicode="&#xe7;" horiz-adv-x="590" 
d="M534 0h-181v35q-59 -46 -131 -46q-170 0 -170 215v321h181v-298q0 -86 60 -86t60 84v300h181v-525zM498 595h-120l-83 64l-83 -64h-118l131 160h142z" />
    <glyph glyph-name="egrave" unicode="&#xe8;" horiz-adv-x="590" 
d="M534 0h-181v35q-59 -46 -131 -46q-170 0 -170 215v321h181v-298q0 -86 60 -86t60 84v300h181v-525zM504 686q0 -34 -26.5 -60t-61.5 -26q-36 0 -63 26t-27 60q0 36 27 62t63 26q35 0 61.5 -26t26.5 -62zM266 686q0 -34 -27 -60t-62 -26t-62 26t-27 60q0 36 26.5 62
t62.5 26t62.5 -26t26.5 -62z" />
    <glyph glyph-name="eacute" unicode="&#xe9;" horiz-adv-x="590" 
d="M575 525l-254 -710h-172l66 163l-200 547h191l50 -187q32 -119 40 -187q10 73 41 189l49 185h189zM519 745l-157 -160h-128l72 160h213z" />
    <glyph glyph-name="ecircumflex" unicode="&#xea;" horiz-adv-x="520" 
d="M492 114q-46 -68 -94 -96.5t-117 -28.5q-116 0 -181 71.5t-65 203.5q0 125 62 196q66 76 188 76q127 0 202 -120l-124 -94q-20 38 -35 51q-18 17 -46 17q-69 0 -69 -129q0 -126 74 -126q45 0 91 68zM471 755l-131 -160h-142l-131 160h120l83 -64l83 64h118z" />
    <glyph glyph-name="edieresis" unicode="&#xeb;" horiz-adv-x="590" 
d="M575 525l-254 -710h-172l66 163l-200 547h191l50 -187q32 -119 40 -187q10 73 41 189l49 185h189zM503 676q0 -34 -26.5 -60t-61.5 -26q-36 0 -63 26t-27 60q0 36 27 62t63 26q35 0 61.5 -26t26.5 -62zM265 676q0 -34 -27 -60t-62 -26t-62 26t-27 60q0 36 26.5 62
t62.5 26t62.5 -26t26.5 -62z" />
    <glyph glyph-name="igrave" unicode="&#xec;" horiz-adv-x="679" 
d="M628 215q0 -115 -81 -173q-75 -53 -208 -53q-166 0 -295 85l94 152q41 -28 97 -48q62 -22 108 -22q51 0 71 10t20 35q0 20 -25 34t-94 30q-135 31 -188 75q-62 50 -62 150t75 160.5t201 60.5q164 0 279 -81l-94 -152q-97 66 -195 66q-72 0 -72 -43q0 -19 23.5 -31
t91.5 -28q137 -32 193 -80q61 -52 61 -147zM545 907l-131 -160h-142l-131 160h120l83 -64l83 64h118z" />
    <glyph glyph-name="iacute" unicode="&#xed;" horiz-adv-x="523" 
d="M479 166q0 -177 -217 -177q-108 0 -219 43l42 136q104 -46 181 -46q48 0 48 24q0 22 -42 33q-127 34 -170 68q-48 38 -48 117q0 172 214 172q96 0 202 -38l-40 -139q-101 44 -167 44q-44 0 -44 -23q0 -13 9.5 -20t42.5 -16q118 -32 159 -65q49 -38 49 -113zM461 755
l-131 -160h-142l-131 160h120l83 -64l83 64h118z" />
    <glyph glyph-name="icircumflex" unicode="&#xee;" horiz-adv-x="839" 
d="M807 308h-102v94q0 74 2 104q-28 -68 -45 -103l-52 -108l-51 108q-27 58 -46 103q2 -30 2 -104v-94h-101v392h99l48 -104q43 -93 50 -119q8 30 49 119l48 104h99v-392zM352 606h-109v-298h-109v298h-110v94h328v-94z" />
    <glyph glyph-name="idieresis" unicode="&#xef;" horiz-adv-x="746" 
d="M730 700l-259 -439v-261h-196v258l-259 442h224l54 -106q60 -118 80 -181q20 63 80 181l54 106h222zM581 831q0 -34 -26.5 -60t-61.5 -26q-36 0 -63 26t-27 60q0 36 27 62t63 26q35 0 61.5 -26t26.5 -62zM343 831q0 -34 -27 -60t-62 -26t-62 26t-27 60q0 36 26.5 62
t62.5 26t62.5 -26t26.5 -62z" />
    <glyph glyph-name="eth" unicode="&#xf0;" 
d="M811 354l-159 -137q-22 -19 -40 -7q-17 12 -10 43l8 36h-132v-113l36 8q31 7 43 -10q12 -18 -7 -40l-137 -159l-137 159q-19 22 -7 40q12 17 43 10l36 -8v113h-132l8 -36q7 -31 -10 -43q-18 -12 -40 7l-159 137l159 137q22 19 40 7q17 -12 10 -43l-8 -36h132v105l-36 -8
q-31 -7 -43 10q-12 18 7 40l137 159l137 -159q19 -22 7 -40q-12 -17 -43 -10l-36 8v-105h132l-8 36q-7 31 10 43q18 12 40 -7z" />
    <glyph glyph-name="ograve" unicode="&#xf2;" horiz-adv-x="450" 
d="M401 213q5 -7 5 -16q0 -15 -13 -30l-168 -192l-168 192q-13 15 -13 30q0 9 5 16q14 19 50 12l46 -9v484h160v-484l46 9q36 7 50 -12z" />
    <glyph glyph-name="oacute" unicode="&#xf3;" horiz-adv-x="706" 
d="M670 700l-263 -700h-185l-184 340h190l25 -53q44 -93 55 -144q8 50 39 148l130 409h193z" />
    <glyph glyph-name="ocircumflex" unicode="&#xf4;" horiz-adv-x="450" 
d="M401 487q-14 -19 -50 -12l-46 9v-484h-160v484l-46 -9q-36 -7 -50 12q-5 7 -5 16q0 15 13 30l168 192l168 -192q13 -15 13 -30q0 -9 -5 -16z" />
    <glyph glyph-name="otilde" unicode="&#xf5;" horiz-adv-x="572" 
d="M516 0h-181v37q-60 -48 -124 -48q-79 0 -124 63q-50 70 -50 209q0 275 181 275q56 0 117 -46v35h181v-525zM335 162v201q-30 25 -64 25q-30 0 -42 -24q-15 -27 -15 -97q0 -75 14 -102.5t44 -27.5q33 0 63 25z" />
    <glyph glyph-name="odieresis" unicode="&#xf6;" horiz-adv-x="523" 
d="M479 166q0 -177 -217 -177q-108 0 -219 43l42 136q104 -46 181 -46q48 0 48 24q0 22 -42 33q-127 34 -170 68q-48 38 -48 117q0 172 214 172q96 0 202 -38l-40 -139q-101 44 -167 44q-44 0 -44 -23q0 -13 9.5 -20t42.5 -16q118 -32 159 -65q49 -38 49 -113zM461 755
l-131 -160h-142l-131 160h120l83 -64l83 64h118z" />
    <glyph glyph-name="divide" unicode="&#xf7;" 
d="M811 354l-159 -137q-22 -19 -40 -7q-17 12 -10 43l8 36h-132v-113l36 8q31 7 43 -10q12 -18 -7 -40l-137 -159l-137 159q-19 22 -7 40q12 17 43 10l36 -8v113h-132l8 -36q7 -31 -10 -43q-18 -12 -40 7l-159 137l159 137q22 19 40 7q17 -12 10 -43l-8 -36h132v105l-36 -8
q-31 -7 -43 10q-12 18 7 40l137 159l137 -159q19 -22 7 -40q-12 -17 -43 -10l-36 8v-105h132l-8 36q-7 31 10 43q18 12 40 -7z" />
    <glyph glyph-name="ugrave" unicode="&#xf9;" 
d="M811 354l-159 -137q-22 -19 -40 -7q-17 12 -10 43l8 36h-132v-113l36 8q31 7 43 -10q12 -18 -7 -40l-137 -159l-137 159q-19 22 -7 40q12 17 43 10l36 -8v113h-132l8 -36q7 -31 -10 -43q-18 -12 -40 7l-159 137l159 137q22 19 40 7q17 -12 10 -43l-8 -36h132v105l-36 -8
q-31 -7 -43 10q-12 18 7 40l137 159l137 -159q19 -22 7 -40q-12 -17 -43 -10l-36 8v-105h132l-8 36q-7 31 10 43q18 12 40 -7z" />
    <glyph glyph-name="uacute" unicode="&#xfa;" horiz-adv-x="450" 
d="M401 213q5 -7 5 -16q0 -15 -13 -30l-168 -192l-168 192q-13 15 -13 30q0 9 5 16q14 19 50 12l46 -9v268l-46 -9q-36 -7 -50 12q-5 7 -5 16q0 15 13 30l168 192l168 -192q13 -15 13 -30q0 -9 -5 -16q-14 -19 -50 -12l-46 9v-268l46 9q36 7 50 -12z" />
    <glyph glyph-name="ucircumflex" unicode="&#xfb;" 
d="M811 354l-159 -137q-22 -19 -40 -7q-17 12 -10 43l8 36h-132v-113l36 8q31 7 43 -10q12 -18 -7 -40l-137 -159l-137 159q-19 22 -7 40q12 17 43 10l36 -8v113h-132l8 -36q7 -31 -10 -43q-18 -12 -40 7l-159 137l159 137q22 19 40 7q17 -12 10 -43l-8 -36h132v105l-36 -8
q-31 -7 -43 10q-12 18 7 40l137 159l137 -159q19 -22 7 -40q-12 -17 -43 -10l-36 8v-105h132l-8 36q-7 31 10 43q18 12 40 -7z" />
    <glyph glyph-name="udieresis" unicode="&#xfc;" 
d="M811 354l-159 -137q-22 -19 -40 -7q-17 12 -10 43l8 36h-132v-113l36 8q31 7 43 -10q12 -18 -7 -40l-137 -159l-137 159q-19 22 -7 40q12 17 43 10l36 -8v113h-132l8 -36q7 -31 -10 -43q-18 -12 -40 7l-159 137l159 137q22 19 40 7q17 -12 10 -43l-8 -36h132v105l-36 -8
q-31 -7 -43 10q-12 18 7 40l137 159l137 -159q19 -22 7 -40q-12 -17 -43 -10l-36 8v-105h132l-8 36q-7 31 10 43q18 12 40 -7z" />
    <glyph glyph-name="yacute" unicode="&#xfd;" 
d="M811 354l-159 -137q-22 -19 -40 -7q-17 12 -10 43l8 36h-132v-113l36 8q31 7 43 -10q12 -18 -7 -40l-137 -159l-137 159q-19 22 -7 40q12 17 43 10l36 -8v113h-132l8 -36q7 -31 -10 -43q-18 -12 -40 7l-159 137l159 137q22 19 40 7q17 -12 10 -43l-8 -36h132v105l-36 -8
q-31 -7 -43 10q-12 18 7 40l137 159l137 -159q19 -22 7 -40q-12 -17 -43 -10l-36 8v-105h132l-8 36q-7 31 10 43q18 12 40 -7z" />
    <glyph glyph-name="thorn" unicode="&#xfe;" 
d="M811 354l-159 -137q-22 -19 -40 -7q-17 12 -10 43l8 36h-132v-113l36 8q31 7 43 -10q12 -18 -7 -40l-137 -159l-137 159q-19 22 -7 40q12 17 43 10l36 -8v113h-132l8 -36q7 -31 -10 -43q-18 -12 -40 7l-159 137l159 137q22 19 40 7q17 -12 10 -43l-8 -36h132v105l-36 -8
q-31 -7 -43 10q-12 18 7 40l137 159l137 -159q19 -22 7 -40q-12 -17 -43 -10l-36 8v-105h132l-8 36q-7 31 10 43q18 12 40 -7z" />
    <glyph glyph-name="mu" unicode="&#xb5;" horiz-adv-x="732" 
d="M690 351q0 -171 -89.5 -266.5t-235.5 -95.5t-233 93q-90 96 -90 267t91 268q88 94 234 94t233 -93q90 -96 90 -267zM489 349q0 94 -32.5 143.5t-91.5 49.5q-122 0 -122 -191q0 -94 32.5 -143.5t91.5 -49.5q122 0 122 191zM575 905l-157 -160h-128l72 160h213z" />
    <glyph glyph-name="mu" unicode="&#x3bc;" horiz-adv-x="732" 
d="M690 351q0 -171 -89.5 -266.5t-235.5 -95.5t-233 93q-90 96 -90 267t91 268q88 94 234 94t233 -93q90 -96 90 -267zM489 349q0 94 -32.5 143.5t-91.5 49.5q-122 0 -122 -191q0 -94 32.5 -143.5t91.5 -49.5q122 0 122 191zM575 905l-157 -160h-128l72 160h213z" />
    <glyph glyph-name="minus" unicode="&#xad;" horiz-adv-x="667" 
d="M614 0h-543v700h536v-163h-344v-93h207v-161h-207v-120h351v-163zM558 836q0 -34 -26.5 -60t-61.5 -26q-36 0 -63 26t-27 60q0 36 27 62t63 26q35 0 61.5 -26t26.5 -62zM320 836q0 -34 -27 -60t-62 -26t-62 26t-27 60q0 36 26.5 62t62.5 26t62.5 -26t26.5 -62z" />
    <glyph glyph-name="minus" unicode="&#x2212;" horiz-adv-x="667" 
d="M614 0h-543v700h536v-163h-344v-93h207v-161h-207v-120h351v-163zM558 836q0 -34 -26.5 -60t-61.5 -26q-36 0 -63 26t-27 60q0 36 27 62t63 26q35 0 61.5 -26t26.5 -62zM320 836q0 -34 -27 -60t-62 -26t-62 26t-27 60q0 36 26.5 62t62.5 26t62.5 -26t26.5 -62z" />
    <glyph glyph-name="glyph223" horiz-adv-x="280" 
 />
    <glyph glyph-name="nonbreakingspace" unicode="&#xa0;" horiz-adv-x="350" 
d="M274 0h-198v700h198v-700zM361 745h-128l-157 160h213z" />
    <glyph glyph-name="eec736" horiz-adv-x="762" 
d="M733 0h-210l-38 123h-210l-38 -123h-208l254 700h196zM438 277l-13 46q-36 126 -45 175q-9 -49 -45 -175l-13 -46h116zM592 899q0 -68 -35.5 -112.5t-95.5 -44.5q-47 0 -89 25q-49 29 -61 29q-30 0 -37 -51h-103q0 68 35.5 112.5t95.5 44.5q47 0 89 -25q49 -29 61 -29
q31 0 37 51h103z" />
    <glyph glyph-name="eec737" horiz-adv-x="762" 
d="M733 0h-210l-38 123h-210l-38 -123h-208l254 700h196zM438 277l-13 46q-36 126 -45 175q-9 -49 -45 -175l-13 -46h116zM583 763h-120l-83 64l-83 -64h-118l131 160h142z" />
    <glyph glyph-name="eec738" horiz-adv-x="762" 
d="M733 0h-210l-38 123h-210l-38 -123h-208l254 700h196zM438 277l-13 46q-36 126 -45 175q-9 -49 -45 -175l-13 -46h116zM592 905l-157 -160h-128l72 160h213z" />
    <glyph glyph-name="eec739" horiz-adv-x="762" 
d="M733 0h-210l-38 123h-210l-38 -123h-208l254 700h196zM438 277l-13 46q-36 126 -45 175q-9 -49 -45 -175l-13 -46h116zM454 745h-128l-157 160h213z" />
    <glyph glyph-name="eec740" horiz-adv-x="820" 
d="M805 354l-192 -168q-15 -13 -30 -13q-9 0 -16 5q-19 14 -12 50l9 46h-308l9 -46q7 -36 -12 -50q-7 -5 -16 -5q-15 0 -30 13l-192 168l192 168q15 13 30 13q9 0 16 -5q19 -14 12 -50l-9 -46h308l-9 46q-7 36 12 50q7 5 16 5q15 0 30 -13z" />
    <glyph glyph-name="eec741" 
d="M811 354l-159 -137q-22 -19 -40 -7q-17 12 -10 43l8 36h-132v-113l36 8q31 7 43 -10q12 -18 -7 -40l-137 -159l-137 159q-19 22 -7 40q12 17 43 10l36 -8v113h-132l8 -36q7 -31 -10 -43q-18 -12 -40 7l-159 137l159 137q22 19 40 7q17 -12 10 -43l-8 -36h132v105l-36 -8
q-31 -7 -43 10q-12 18 7 40l137 159l137 -159q19 -22 7 -40q-12 -17 -43 -10l-36 8v-105h132l-8 36q-7 31 10 43q18 12 40 -7z" />
    <glyph glyph-name="eec742" horiz-adv-x="526" 
d="M481 494q0 -95 -62.5 -157t-155.5 -62q-92 0 -155 62t-63 157q0 93 63 155t155 62q93 0 155.5 -62t62.5 -155zM353 494q0 44 -25 70t-65 26t-65 -26t-25 -70q0 -46 25 -72t65 -26t65 26t25 72z" />
    <glyph glyph-name="eec743" horiz-adv-x="836" 
d="M779 350q0 -154 -103.5 -257.5t-257.5 -103.5t-257.5 103.5t-103.5 257.5t103.5 257.5t257.5 103.5t257.5 -103.5t103.5 -257.5zM705 350q0 129 -81.5 209.5t-205.5 80.5t-205.5 -80.5t-81.5 -209.5t81.5 -209.5t205.5 -80.5t205.5 80.5t81.5 209.5zM603 163h-121
l-64 132h-44v-132h-107v392h176q153 0 153 -128q0 -82 -71 -115zM488 424q0 42 -48 42h-66v-85h64q50 0 50 43z" />
    <glyph glyph-name="eec744" horiz-adv-x="679" 
d="M628 215q0 -115 -81 -173q-75 -53 -208 -53q-166 0 -295 85l94 152q41 -28 97 -48q62 -22 108 -22q51 0 71 10t20 35q0 20 -25 34t-94 30q-135 31 -188 75q-62 50 -62 150t75 160.5t201 60.5q164 0 279 -81l-94 -152q-97 66 -195 66q-72 0 -72 -43q0 -19 23.5 -31
t91.5 -28q137 -32 193 -80q61 -52 61 -147zM545 907l-131 -160h-142l-131 160h120l83 -64l83 64h118z" />
    <glyph glyph-name="eec745" horiz-adv-x="836" 
d="M779 350q0 -154 -103.5 -257.5t-257.5 -103.5t-257.5 103.5t-103.5 257.5t103.5 257.5t257.5 103.5t257.5 -103.5t103.5 -257.5zM705 350q0 129 -81.5 209.5t-205.5 80.5t-205.5 -80.5t-81.5 -209.5t81.5 -209.5t205.5 -80.5t205.5 80.5t81.5 209.5zM582 253
q-53 -101 -163 -101q-85 0 -133 58q-46 54 -46 144q0 93 49.5 147.5t129.5 54.5q69 0 107 -30q33 -26 55 -85l-99 -39q-23 60 -63 60q-65 0 -65 -108q0 -107 66 -107q39 0 70 55z" />
    <glyph glyph-name="eec746" horiz-adv-x="710" 
d="M640 0h-574v139l205 250q40 49 138 156q-81 -3 -208 -3h-115v158h552v-139l-205 -250q-40 -49 -138 -156q81 3 208 3h137v-158zM560 905l-131 -160h-142l-131 160h120l83 -64l83 64h118z" />
    <glyph glyph-name="eec747" horiz-adv-x="165" 
 />
    <glyph glyph-name="eec748" 
d="M811 354l-159 -137q-22 -19 -40 -7q-17 12 -10 43l8 36h-132v-113l36 8q31 7 43 -10q12 -18 -7 -40l-137 -159l-137 159q-19 22 -7 40q12 17 43 10l36 -8v113h-132l8 -36q7 -31 -10 -43q-18 -12 -40 7l-159 137l159 137q22 19 40 7q17 -12 10 -43l-8 -36h132v105l-36 -8
q-31 -7 -43 10q-12 18 7 40l137 159l137 -159q19 -22 7 -40q-12 -17 -43 -10l-36 8v-105h132l-8 36q-7 31 10 43q18 12 40 -7z" />
    <glyph glyph-name="eec749" 
d="M811 354l-159 -137q-22 -19 -40 -7q-17 12 -10 43l8 36h-132v-113l36 8q31 7 43 -10q12 -18 -7 -40l-137 -159l-137 159q-19 22 -7 40q12 17 43 10l36 -8v113h-132l8 -36q7 -31 -10 -43q-18 -12 -40 7l-159 137l159 137q22 19 40 7q17 -12 10 -43l-8 -36h132v105l-36 -8
q-31 -7 -43 10q-12 18 7 40l137 159l137 -159q19 -22 7 -40q-12 -17 -43 -10l-36 8v-105h132l-8 36q-7 31 10 43q18 12 40 -7z" />
    <glyph glyph-name="eec750" 
d="M811 354l-159 -137q-22 -19 -40 -7q-17 12 -10 43l8 36h-132v-113l36 8q31 7 43 -10q12 -18 -7 -40l-137 -159l-137 159q-19 22 -7 40q12 17 43 10l36 -8v113h-132l8 -36q7 -31 -10 -43q-18 -12 -40 7l-159 137l159 137q22 19 40 7q17 -12 10 -43l-8 -36h132v105l-36 -8
q-31 -7 -43 10q-12 18 7 40l137 159l137 -159q19 -22 7 -40q-12 -17 -43 -10l-36 8v-105h132l-8 36q-7 31 10 43q18 12 40 -7z" />
    <glyph glyph-name="eec751" 
d="M811 354l-159 -137q-22 -19 -40 -7q-17 12 -10 43l8 36h-132v-113l36 8q31 7 43 -10q12 -18 -7 -40l-137 -159l-137 159q-19 22 -7 40q12 17 43 10l36 -8v113h-132l8 -36q7 -31 -10 -43q-18 -12 -40 7l-159 137l159 137q22 19 40 7q17 -12 10 -43l-8 -36h132v105l-36 -8
q-31 -7 -43 10q-12 18 7 40l137 159l137 -159q19 -22 7 -40q-12 -17 -43 -10l-36 8v-105h132l-8 36q-7 31 10 43q18 12 40 -7z" />
    <glyph glyph-name="eec752" 
d="M811 354l-159 -137q-22 -19 -40 -7q-17 12 -10 43l8 36h-132v-113l36 8q31 7 43 -10q12 -18 -7 -40l-137 -159l-137 159q-19 22 -7 40q12 17 43 10l36 -8v113h-132l8 -36q7 -31 -10 -43q-18 -12 -40 7l-159 137l159 137q22 19 40 7q17 -12 10 -43l-8 -36h132v105l-36 -8
q-31 -7 -43 10q-12 18 7 40l137 159l137 -159q19 -22 7 -40q-12 -17 -43 -10l-36 8v-105h132l-8 36q-7 31 10 43q18 12 40 -7z" />
    <glyph glyph-name="eec753" 
d="M811 354l-159 -137q-22 -19 -40 -7q-17 12 -10 43l8 36h-132v-113l36 8q31 7 43 -10q12 -18 -7 -40l-137 -159l-137 159q-19 22 -7 40q12 17 43 10l36 -8v113h-132l8 -36q7 -31 -10 -43q-18 -12 -40 7l-159 137l159 137q22 19 40 7q17 -12 10 -43l-8 -36h132v105l-36 -8
q-31 -7 -43 10q-12 18 7 40l137 159l137 -159q19 -22 7 -40q-12 -17 -43 -10l-36 8v-105h132l-8 36q-7 31 10 43q18 12 40 -7z" />
    <glyph glyph-name="eec754" 
d="M811 354l-159 -137q-22 -19 -40 -7q-17 12 -10 43l8 36h-132v-113l36 8q31 7 43 -10q12 -18 -7 -40l-137 -159l-137 159q-19 22 -7 40q12 17 43 10l36 -8v113h-132l8 -36q7 -31 -10 -43q-18 -12 -40 7l-159 137l159 137q22 19 40 7q17 -12 10 -43l-8 -36h132v105l-36 -8
q-31 -7 -43 10q-12 18 7 40l137 159l137 -159q19 -22 7 -40q-12 -17 -43 -10l-36 8v-105h132l-8 36q-7 31 10 43q18 12 40 -7z" />
  </font>
</defs>
</svg>
