<?xml version="1.0" standalone="no"?>
<!DOCTYPE svg PUBLIC "-//W3C//DTD SVG 1.1//EN" "http://www.w3.org/Graphics/SVG/1.1/DTD/svg11.dtd" >
<svg xmlns="http://www.w3.org/2000/svg" xmlns:xlink="http://www.w3.org/1999/xlink" version="1.1">
<metadata>
Created by FontForge 20170104 at Thu Mar 29 16:42:25 2001
 By myTaste
* (copyright) 1994, Tobias Frere-Jones. Designed by Tobias Frere-Jones. Produced by The Font Bureau, Inc.
</metadata>
<defs>
<font id="InterstateLight" horiz-adv-x="728" >
  <font-face 
    font-family="InterstateLight"
    font-weight="400"
    font-stretch="normal"
    units-per-em="1000"
    panose-1="0 0 4 0 0 0 0 0 0 0"
    ascent="800"
    descent="-200"
    x-height="525"
    cap-height="700"
    bbox="-51 -193 1300 914"
    underline-thickness="20"
    underline-position="-143"
    unicode-range="U+0020-F002"
  />
<missing-glyph horiz-adv-x="500" 
d="M63 0v800h375v-800h-375zM125 63h250v675h-250v-675z" />
    <glyph glyph-name=".notdef" horiz-adv-x="500" 
d="M63 0v800h375v-800h-375zM125 63h250v675h-250v-675z" />
    <glyph glyph-name=".null" horiz-adv-x="0" 
 />
    <glyph glyph-name="nonmarkingreturn" horiz-adv-x="260" 
 />
    <glyph glyph-name="space" unicode=" " horiz-adv-x="260" 
 />
    <glyph glyph-name="exclam" unicode="!" horiz-adv-x="263" 
d="M170 371l-18 -183h-42l-17 183v329h77v-329zM192 50q0 -25 -18.5 -43t-42.5 -18q-25 0 -43 18t-18 43t18 44t43 19q24 0 42.5 -19t18.5 -44z" />
    <glyph glyph-name="quotedbl" unicode="&#x22;" horiz-adv-x="460" 
d="M376 700l-17 -327h-59l-17 327h93zM177 700l-17 -327h-59l-17 327h93z" />
    <glyph glyph-name="numbersign" unicode="#" horiz-adv-x="672" 
d="M620 176h-120v-176h-75v176h-178v-176h-75v176h-120v70h120v208h-120v70h120v176h75v-176h178v176h75v-176h120v-70h-120v-208h120v-70zM425 246v208h-178v-208h178z" />
    <glyph glyph-name="dollar" unicode="$" horiz-adv-x="582" 
d="M517 189q0 -76 -51.5 -127t-142.5 -61v-101h-75v101q-118 13 -198 95l52 58q87 -84 186 -84q71 0 111 30t40 85q0 48 -35 78t-132 65q-115 41 -158.5 83t-43.5 116t49 119q46 44 129 53v101h75v-100q95 -8 179 -74l-50 -61q-79 65 -168 65q-136 0 -136 -98q0 -45 32 -72
t134 -64q117 -42 160 -85.5t43 -121.5z" />
    <glyph glyph-name="percent" unicode="%" horiz-adv-x="963" 
d="M903 207q0 -96 -45.5 -157t-118.5 -61t-117 59.5t-44 156.5q0 98 44.5 158.5t118.5 60.5q75 0 118.5 -59.5t43.5 -157.5zM735 700l-435 -700h-73l435 700h73zM385 494q0 -96 -45.5 -157t-118.5 -61t-117 59.5t-44 156.5q0 98 44.5 158.5t118.5 60.5q75 0 118.5 -59.5
t43.5 -157.5zM834 205q0 70 -25.5 114.5t-68.5 44.5t-68 -43.5t-25 -113.5t25.5 -114t68.5 -44q42 0 68 47q25 44 25 109zM316 492q0 70 -25.5 114.5t-68.5 44.5t-68 -43.5t-25 -113.5t25.5 -114t68.5 -44q42 0 68 47q25 44 25 109z" />
    <glyph glyph-name="ampersand" unicode="&#x26;" horiz-adv-x="644" 
d="M609 0h-92l-56 73q-82 -84 -189 -84q-109 0 -163 56q-48 49 -48 132q0 74 41 126q37 45 116 85l-24 32q-62 83 -62 140q0 67 48.5 109t129.5 42q107 0 186 -63l-40 -62q-72 57 -147 57q-46 0 -73 -21.5t-27 -57.5q0 -43 42 -98l213 -277q24 44 48 123l66 -20
q-24 -89 -70 -160zM420 125l-162 212q-122 -56 -122 -158q0 -53 35 -86q38 -36 103 -36q86 0 146 68z" />
    <glyph glyph-name="quotesingle" unicode="'" horiz-adv-x="257" 
d="M176 700l-17 -327h-61l-17 327h95z" />
    <glyph glyph-name="parenleft" unicode="(" horiz-adv-x="348" 
d="M299 -79l-33 -31q-203 185 -203 410q0 231 203 416l33 -31q-159 -164 -159 -380q0 -220 159 -384z" />
    <glyph glyph-name="parenright" unicode=")" horiz-adv-x="348" 
d="M285 306q0 -231 -203 -416l-33 31q159 164 159 380q0 220 -159 384l33 31q203 -185 203 -410z" />
    <glyph glyph-name="asterisk" unicode="*" horiz-adv-x="500" 
d="M428 445l-31 -54l-133 99l17 -166h-62l17 166l-133 -99l-31 54l148 67l-148 67l31 54l133 -99l-17 166h62l-17 -166l133 99l31 -54l-148 -67z" />
    <glyph glyph-name="plus" unicode="+" horiz-adv-x="577" 
d="M522 310h-197v-203h-73v203h-197v68h197v203h73v-203h197v-68z" />
    <glyph glyph-name="comma" unicode="," horiz-adv-x="240" 
d="M177 115l-65 -233h-52l15 233h102z" />
    <glyph glyph-name="hyphen" unicode="-" horiz-adv-x="322" 
d="M271 329h-220v73h220v-73z" />
    <glyph glyph-name="hyphen" unicode="&#x2010;" horiz-adv-x="322" 
d="M271 329h-220v73h220v-73z" />
    <glyph glyph-name="period" unicode="." horiz-adv-x="240" 
d="M184 53q0 -26 -19 -45t-45 -19t-45 19t-19 45t19 46t45 20q25 0 44.5 -20t19.5 -46z" />
    <glyph glyph-name="slash" unicode="/" horiz-adv-x="425" 
d="M399 790l-299 -880h-74l299 880h74z" />
    <glyph glyph-name="zero" unicode="0" horiz-adv-x="642" 
d="M583 350q0 -171 -71.5 -266t-190.5 -95t-189 94q-73 96 -73 267t73 268q70 93 189 93t190 -93q72 -97 72 -268zM506 350q0 137 -47.5 214t-137.5 77t-137.5 -77t-47.5 -214t47.5 -214t137.5 -77t137.5 77t47.5 214z" />
    <glyph glyph-name="one" unicode="1" horiz-adv-x="312" 
d="M219 0h-77v560h-127v49q130 8 145 91h59v-700z" />
    <glyph glyph-name="two" unicode="2" horiz-adv-x="569" 
d="M499 0h-460q6 123 66 203q45 61 159 139q92 63 121.5 98.5t29.5 83.5q0 55 -37.5 86t-105.5 31q-95 0 -170 -65l-45 57q97 78 218 78q98 0 155 -45q62 -48 62 -138q0 -74 -40 -123q-32 -40 -135 -110t-143 -119q-36 -43 -46 -102h371v-74z" />
    <glyph glyph-name="three" unicode="3" horiz-adv-x="563" 
d="M498 201q0 -99 -66.5 -155.5t-182.5 -56.5q-63 0 -125 29q-56 27 -92 68l52 52q74 -79 169 -79q168 0 168 140q0 64 -45 98t-121 34h-46v67h48q66 0 102 34q33 33 33 90q0 119 -144 119q-80 0 -141 -64l-49 50q80 84 192 84q97 0 156 -44q63 -48 63 -135q0 -113 -99 -164
q128 -28 128 -167z" />
    <glyph glyph-name="four" unicode="4" horiz-adv-x="625" 
d="M581 166h-96v-166h-72v166h-374v65l362 469h84v-467h96v-67zM413 233v374q-33 -47 -99 -132l-95 -123q-65 -85 -95 -119h289z" />
    <glyph glyph-name="five" unicode="5" horiz-adv-x="605" 
d="M542 233q0 -122 -74 -185q-68 -59 -189 -59q-123 0 -221 64l38 62q88 -56 189 -56q88 0 134 46t46 123q0 69 -43 108t-124 39t-146 -45l-77 30l24 340h401v-74h-334l-17 -225q64 44 154 44q117 0 180 -59q59 -56 59 -153z" />
    <glyph glyph-name="six" unicode="6" horiz-adv-x="614" 
d="M570 216q0 -109 -74 -170q-70 -57 -184 -57q-113 0 -178 63q-73 71 -73 213q0 164 87 285q109 149 318 161v-69q-275 -24 -330 -294q77 82 202 82q102 0 164 -53q68 -57 68 -161zM493 212q0 70 -46 109t-129 39t-131.5 -40.5t-48.5 -107.5q0 -66 49 -109.5t128 -43.5
q85 0 133 43q45 41 45 110z" />
    <glyph glyph-name="seven" unicode="7" horiz-adv-x="556" 
d="M476 627q-227 -280 -233 -627h-79q9 339 227 626h-375v74h460v-73z" />
    <glyph glyph-name="eight" unicode="8" horiz-adv-x="636" 
d="M578 196q0 -100 -69.5 -153.5t-191.5 -53.5t-189 52q-70 53 -70 153q0 135 139 181q-109 43 -109 148q0 84 61 136t170 52t169 -51t60 -135q0 -102 -109 -148q139 -46 139 -181zM471 523q0 50 -35 81q-41 37 -119 37t-118 -36q-34 -31 -34 -80q0 -52 41.5 -85.5
t112.5 -33.5q68 0 110 33.5t42 83.5zM501 194q0 63 -49 102.5t-135 39.5t-134 -38.5t-48 -101.5t47 -100t137 -37t136 36t46 99z" />
    <glyph glyph-name="nine" unicode="9" horiz-adv-x="614" 
d="M553 435q0 -164 -87 -284q-109 -150 -318 -162v69q275 24 330 294q-77 -82 -202 -82q-102 0 -164 53q-68 57 -68 161q0 109 74 170q70 57 184 57q113 0 178 -63q73 -71 73 -213zM476 488q0 66 -49 109.5t-128 43.5q-85 0 -131.5 -42t-46.5 -111q0 -70 46 -109t129 -39
t131.5 40.5t48.5 107.5z" />
    <glyph glyph-name="colon" unicode=":" horiz-adv-x="240" 
d="M184 470q0 -26 -19 -45t-45 -19t-45 19t-19 45t19 46t45 20q25 0 44.5 -20t19.5 -46zM184 53q0 -26 -19 -45t-45 -19t-45 19t-19 45t19 46t45 20q25 0 44.5 -20t19.5 -46z" />
    <glyph glyph-name="semicolon" unicode=";" horiz-adv-x="240" 
d="M184 470q0 -26 -19 -45t-45 -19t-45 19t-19 45t19 46t45 20q25 0 44.5 -20t19.5 -46zM170 115l-65 -233h-52l15 233h102z" />
    <glyph glyph-name="less" unicode="&#x3c;" horiz-adv-x="385" 
d="M316 62l-259 248v68l259 248v-93l-200 -188l200 -188v-95z" />
    <glyph glyph-name="equal" unicode="=" horiz-adv-x="577" 
d="M497 418h-417v70h417v-70zM497 200h-417v70h417v-70z" />
    <glyph glyph-name="greater" unicode="&#x3e;" horiz-adv-x="385" 
d="M328 310l-259 -248v93l200 188l-200 188v95l259 -248v-68z" />
    <glyph glyph-name="question" unicode="?" horiz-adv-x="561" 
d="M494 539q0 -67 -33 -109q-24 -31 -91 -72q-54 -33 -67 -73q-9 -24 -9 -97h-77q0 102 20 141.5t98 87.5q43 27 60 49q21 27 21 67q0 48 -39 77.5t-102 29.5q-98 0 -181 -77l-50 55q95 93 234 93q98 0 156 -43q60 -46 60 -129zM315 50q0 -25 -18.5 -43t-42.5 -18
q-25 0 -43 18t-18 43t18 44t43 19q24 0 42.5 -19t18.5 -44z" />
    <glyph glyph-name="at" unicode="@" horiz-adv-x="836" 
d="M779 360q0 -208 -148 -208q-75 0 -107 63q-50 -63 -130 -63q-68 0 -109 34q-44 36 -44 103q0 62 47 97q44 34 115 34q66 0 111 -27v59q0 64 -103 64q-52 0 -102 -24l-22 43q62 31 131 31q148 0 148 -111v-193q0 -65 71 -65q92 0 92 162q0 135 -88 220t-223 85
q-136 0 -223.5 -86t-87.5 -226q0 -141 87.5 -228.5t223.5 -87.5q74 0 136 31l18 -44q-75 -34 -154 -34q-157 0 -259 102t-102 259t102 259t259 102t259 -102.5t102 -248.5zM514 262v81q-48 29 -116 29q-45 0 -73 -22.5t-28 -57.5q0 -90 102 -90q76 0 115 60z" />
    <glyph glyph-name="A" unicode="A" horiz-adv-x="678" 
d="M625 0h-82l-60 178h-289l-61 -178h-80l243 700h86zM459 249l-77 230q-35 104 -43 138q-9 -37 -44 -140l-77 -228h241z" />
    <glyph glyph-name="B" unicode="B" horiz-adv-x="626" 
d="M571 207q0 -207 -228 -207h-251v700h256q87 0 137 -42q53 -46 53 -133q0 -107 -101 -143q134 -36 134 -175zM460 522q0 107 -115 107h-175v-218h169q121 0 121 111zM493 203q0 65 -40 101.5t-109 36.5h-174v-270h178q145 0 145 132z" />
    <glyph glyph-name="C" unicode="C" horiz-adv-x="628" 
d="M574 105q-86 -116 -229 -116q-127 0 -205 102t-78 258q0 157 80 259.5t206 102.5q142 0 223 -112l-62 -47q-35 47 -70 67q-38 21 -93 21q-90 0 -148 -81t-58 -208t59 -209t148 -82q102 0 173 92z" />
    <glyph glyph-name="D" unicode="D" horiz-adv-x="658" 
d="M596 355q0 -181 -96 -273q-87 -82 -237 -82h-171v700h185q145 0 229 -82q90 -90 90 -263zM518 352q0 135 -63.5 206t-183.5 71h-101v-558h103q245 0 245 281z" />
    <glyph glyph-name="E" unicode="E" horiz-adv-x="587" 
d="M530 0h-438v700h423v-71h-345v-220h200v-71h-200v-267h360v-71z" />
    <glyph glyph-name="F" unicode="F" horiz-adv-x="548" 
d="M503 629h-333v-232h192v-71h-192v-326h-78v700h411v-71z" />
    <glyph glyph-name="G" unicode="G" horiz-adv-x="659" 
d="M604 279q0 -140 -74 -217q-69 -73 -185 -73q-127 0 -205 102t-78 258q0 157 80 259.5t206 102.5q142 0 223 -112l-62 -47q-35 47 -70 67q-38 21 -93 21q-90 0 -148 -81t-58 -208t59 -209t148 -82q181 0 181 209v6h-126v72h202v-68z" />
    <glyph glyph-name="H" unicode="H" horiz-adv-x="688" 
d="M596 0h-78v330h-348v-330h-78v700h78v-299h348v299h78v-700z" />
    <glyph glyph-name="I" unicode="I" horiz-adv-x="272" 
d="M175 0h-78v700h78v-700z" />
    <glyph glyph-name="J" unicode="J" horiz-adv-x="578" 
d="M491 268q0 -279 -239 -279q-165 0 -222 169l74 25q45 -123 151 -123q84 0 121 50t37 161v429h78v-432z" />
    <glyph glyph-name="K" unicode="K" horiz-adv-x="642" 
d="M599 0h-89l-207 373l-133 -172v-201h-78v700h78v-399q35 50 102 137l203 262h85l-205 -263z" />
    <glyph glyph-name="L" unicode="L" horiz-adv-x="575" 
d="M516 0h-424v700h78v-629h346v-71z" />
    <glyph glyph-name="M" unicode="M" horiz-adv-x="788" 
d="M696 0h-75v549q-10 -39 -42 -116l-187 -451l-184 451q-30 73 -41 116v-549h-75v700h87l165 -419q42 -106 50 -136q13 43 50 136l167 419h85v-700z" />
    <glyph glyph-name="N" unicode="N" horiz-adv-x="688" 
d="M596 0h-73l-306 479q-28 43 -50 88v-567h-75v700h76l303 -488q31 -50 50 -88v576h75v-700z" />
    <glyph glyph-name="O" unicode="O" horiz-adv-x="705" 
d="M643 351q0 -159 -81 -260.5t-211 -101.5t-209.5 100.5t-79.5 259.5t80.5 260.5t210.5 101.5t210 -100.5t80 -259.5zM565 349q0 130 -62 212q-60 79 -153 79q-92 0 -150 -78q-60 -81 -60 -211t60.5 -210.5t153.5 -80.5q92 0 151.5 79.5t59.5 209.5z" />
    <glyph glyph-name="P" unicode="P" horiz-adv-x="618" 
d="M577 491q0 -102 -65 -159t-172 -57h-170v-275h-78v700h262q100 0 159 -51q64 -56 64 -158zM499 488q0 141 -148 141h-181v-283h171q158 0 158 142z" />
    <glyph glyph-name="Q" unicode="Q" horiz-adv-x="705" 
d="M643 351q0 -199 -123 -301l45 -73l-64 -38l-44 72q-50 -22 -106 -22q-130 0 -209.5 100.5t-79.5 259.5t80.5 260.5t210.5 101.5t210 -100.5t80 -259.5zM565 349q0 130 -62 212q-60 79 -153 79q-92 0 -150 -78q-60 -81 -60 -211t60.5 -210.5t153.5 -80.5q36 0 66 12
l-57 93l64 38l56 -92q82 79 82 238z" />
    <glyph glyph-name="R" unicode="R" horiz-adv-x="650" 
d="M587 502q0 -80 -44 -131t-121 -67l154 -304h-90l-150 298h-166v-298h-78v700h277q97 0 155 -48q63 -53 63 -150zM509 499q0 130 -143 130h-196v-261h186q153 0 153 131z" />
    <glyph glyph-name="S" unicode="S" horiz-adv-x="592" 
d="M522 184q0 -85 -61 -139q-64 -56 -171 -56q-140 0 -235 97l52 58q87 -84 186 -84q70 0 110.5 32.5t40.5 87.5q0 49 -36 81.5t-131 66.5q-114 41 -158 85t-44 119q0 83 60 131t159 48q119 0 213 -75l-50 -61q-79 65 -168 65q-68 0 -104 -31q-32 -27 -32 -72q0 -46 31 -73
q34 -32 135 -68q116 -42 159.5 -88t43.5 -124z" />
    <glyph glyph-name="T" unicode="T" horiz-adv-x="588" 
d="M539 629h-206v-629h-78v629h-206v71h490v-71z" />
    <glyph glyph-name="U" unicode="U" horiz-adv-x="678" 
d="M591 286q0 -297 -251 -297q-253 0 -253 295v416h78v-414q0 -226 179 -226q89 0 129 54.5t40 169.5v416h78v-414z" />
    <glyph glyph-name="V" unicode="V" horiz-adv-x="668" 
d="M615 700l-238 -700h-86l-238 700h82l156 -479q31 -95 43 -138q12 42 44 140l157 477h80z" />
    <glyph glyph-name="W" unicode="W" horiz-adv-x="856" 
d="M799 700l-140 -700h-88l-110 448q-19 77 -34 158q-15 -81 -34 -158l-110 -448h-86l-140 700h78l82 -450q10 -61 26 -156q12 70 33 154l111 452h84l111 -452q21 -84 33 -154q9 55 26 156l82 450h76z" />
    <glyph glyph-name="X" unicode="X" horiz-adv-x="632" 
d="M575 0h-88l-107 183q-45 77 -64 116q-19 -36 -64 -116l-109 -183h-86l218 364l-200 336h88l90 -153q27 -46 64 -116q20 41 64 116l90 153h86l-200 -334z" />
    <glyph glyph-name="Y" unicode="Y" horiz-adv-x="652" 
d="M605 700l-240 -422v-278h-78v277l-240 423h89l112 -201q47 -84 79 -150q32 66 79 150l112 201h87z" />
    <glyph glyph-name="Z" unicode="Z" horiz-adv-x="628" 
d="M561 0h-500v68l331 451q34 46 85 113h-396v68h480v-68l-331 -451q-34 -46 -85 -113h416v-68z" />
    <glyph glyph-name="bracketleft" unicode="[" horiz-adv-x="352" 
d="M289 -110h-194v810h194v-61h-121v-688h121v-61z" />
    <glyph glyph-name="backslash" unicode="\" horiz-adv-x="425" 
d="M399 -90h-74l-299 880h74z" />
    <glyph glyph-name="bracketright" unicode="]" horiz-adv-x="352" 
d="M257 -110h-194v61h121v688h-121v61h194v-810z" />
    <glyph glyph-name="asciicircum" unicode="^" horiz-adv-x="558" 
d="M511 382h-86l-147 236l-147 -236h-84l204 318h56z" />
    <glyph glyph-name="underscore" unicode="_" horiz-adv-x="500" 
d="M500 -153h-500v63h500v-63z" />
    <glyph glyph-name="grave" unicode="`" horiz-adv-x="500" 
d="M326 595h-59l-151 160h107z" />
    <glyph glyph-name="a" unicode="a" horiz-adv-x="539" 
d="M459 0h-75v64q-69 -75 -164 -75q-71 0 -115 36q-53 44 -53 132q0 83 62 128q54 40 139 40q76 0 131 -30v62q0 116 -114 116q-74 0 -143 -40l-28 61q77 42 176 42q184 0 184 -170v-366zM384 129v106q-54 30 -135 30q-123 0 -123 -103q0 -112 107 -112q94 0 151 79z" />
    <glyph glyph-name="b" unicode="b" horiz-adv-x="559" 
d="M504 271q0 -134 -58 -211q-54 -71 -140 -71t-148 70v-59h-75v687l75 42v-268q69 75 158 75q84 0 133 -63q55 -70 55 -202zM430 270q0 98 -35 149.5t-98 51.5q-78 0 -139 -76v-262q52 -79 142 -79q130 0 130 216z" />
    <glyph glyph-name="c" unicode="c" horiz-adv-x="495" 
d="M447 474l-45 -56q-59 53 -126 53q-63 0 -103 -53q-42 -56 -42 -152q0 -98 39.5 -155t108.5 -57q63 0 121 56l45 -48q-71 -73 -169 -73q-93 0 -154 67q-67 74 -67 204q0 136 72 211q62 65 154 65q95 0 166 -62z" />
    <glyph glyph-name="d" unicode="d" horiz-adv-x="559" 
d="M476 0h-75v64q-69 -75 -158 -75q-84 0 -133 63q-55 70 -55 202q0 134 58 211q54 71 140 71t148 -70v221l75 42v-729zM401 130v262q-52 79 -142 79q-130 0 -130 -216q0 -98 35 -149.5t98 -51.5q78 0 139 76z" />
    <glyph glyph-name="e" unicode="e" horiz-adv-x="540" 
d="M483 278q0 -23 -3 -41h-350q5 -85 43.5 -134t102.5 -49q70 0 145 50l35 -54q-52 -33 -88 -45q-44 -16 -100 -16q-85 0 -142 61q-71 74 -71 215q0 123 61 197t156 74q100 0 157 -73q54 -69 54 -185zM413 298q-10 173 -142 173q-128 0 -141 -173h283z" />
    <glyph glyph-name="f" unicode="f" horiz-adv-x="356" 
d="M309 646q-25 12 -61 12q-54 0 -54 -55v-78h103v-63h-103v-462h-75v462h-72v63h72v72q0 129 124 129q39 0 66 -9v-71z" />
    <glyph glyph-name="g" unicode="g" horiz-adv-x="559" 
d="M476 47q0 -121 -60 -177q-62 -59 -206 -63l-24 57q128 4 173 43q42 36 42 130v27q-69 -75 -158 -75q-84 0 -133 63q-55 70 -55 202q0 134 58 211q54 71 140 71t148 -70v59h75v-478zM401 130v262q-52 79 -142 79q-130 0 -130 -216q0 -98 35 -149.5t98 -51.5q78 0 139 76z
" />
    <glyph glyph-name="h" unicode="h" horiz-adv-x="567" 
d="M487 0h-75v307q0 164 -124 164q-58 0 -92 -39q-38 -43 -38 -125v-307h-75v687l75 42v-268q51 75 145 75q184 0 184 -216v-320z" />
    <glyph glyph-name="i" unicode="i" horiz-adv-x="251" 
d="M179 672q0 -22 -15.5 -37.5t-36.5 -15.5q-23 0 -39 15.5t-16 37.5q0 23 16 38.5t39 15.5q21 0 36.5 -16t15.5 -38zM163 0h-75v525h75v-525z" />
    <glyph glyph-name="j" unicode="j" horiz-adv-x="251" 
d="M179 672q0 -22 -15.5 -37.5t-36.5 -15.5q-23 0 -39 15.5t-16 37.5q0 23 16 38.5t39 15.5q21 0 36.5 -16t15.5 -38zM163 12q0 -95 -28 -135q-32 -46 -127 -70l-25 56q69 21 88 50q17 26 17 100v512h75v-513z" />
    <glyph glyph-name="k" unicode="k" horiz-adv-x="505" 
d="M463 0h-81l-133 276l-91 -125v-151h-75v687l75 42v-480l21 32l172 244h84l-138 -186z" />
    <glyph glyph-name="l" unicode="l" horiz-adv-x="251" 
d="M163 0h-75v687l75 42v-729z" />
    <glyph glyph-name="m" unicode="m" horiz-adv-x="848" 
d="M768 0h-75v307q0 88 -27.5 126t-85.5 38q-117 0 -117 -164v-307h-75v307q0 164 -113 164q-117 0 -117 -164v-307h-75v525h75v-64q45 75 133 75q99 0 144 -90q56 90 159 90q174 0 174 -216v-320z" />
    <glyph glyph-name="n" unicode="n" horiz-adv-x="567" 
d="M487 0h-75v307q0 164 -124 164q-58 0 -92 -39q-38 -43 -38 -125v-307h-75v525h75v-64q51 75 145 75q184 0 184 -216v-320z" />
    <glyph glyph-name="o" unicode="o" horiz-adv-x="566" 
d="M511 266q0 -129 -67 -205q-63 -72 -163 -72t-161 70q-65 74 -65 203t67 204q63 70 163 70t161 -68q65 -73 65 -202zM436 264q0 101 -41.5 154t-111.5 53t-111 -53t-41 -154t41 -155.5t111 -54.5t111.5 54.5t41.5 155.5z" />
    <glyph glyph-name="p" unicode="p" horiz-adv-x="559" 
d="M504 271q0 -134 -58 -211q-54 -71 -140 -71t-148 70v-210l-75 -42v718h75v-64q69 75 158 75q84 0 133 -63q55 -70 55 -202zM430 270q0 98 -35 149.5t-98 51.5q-78 0 -139 -76v-262q52 -79 142 -79q130 0 130 216z" />
    <glyph glyph-name="q" unicode="q" horiz-adv-x="559" 
d="M476 -151l-75 -42v257q-69 -75 -158 -75q-84 0 -133 63q-55 70 -55 202q0 134 58 211q54 71 140 71t148 -70v59h75v-676zM401 130v262q-52 79 -142 79q-130 0 -130 -216q0 -98 35 -149.5t98 -51.5q78 0 139 76z" />
    <glyph glyph-name="r" unicode="r" horiz-adv-x="407" 
d="M370 523l-19 -76q-35 20 -79 20q-55 0 -84.5 -42t-29.5 -117v-308h-75v525h75v-65q19 33 54 54.5t76 21.5q53 0 82 -13z" />
    <glyph glyph-name="s" unicode="s" horiz-adv-x="467" 
d="M408 137q0 -73 -56 -113q-49 -35 -124 -35q-101 0 -185 67l44 55q66 -58 143 -58q106 0 106 81q0 32 -26.5 54t-97.5 53q-84 36 -114 66q-35 35 -35 95t46 97t118 37q100 0 168 -56l-42 -55q-60 47 -131 47q-41 0 -64 -18t-23 -47q0 -32 25 -52q21 -18 91 -50
q87 -39 116 -66q41 -37 41 -102z" />
    <glyph glyph-name="t" unicode="t" horiz-adv-x="372" 
d="M309 462h-130v-342q0 -35 11.5 -49t41.5 -14q38 0 74 15l-5 -65q-43 -18 -97 -18q-100 0 -100 119v354h-65v63h65v162l75 42v-204h130v-63z" />
    <glyph glyph-name="u" unicode="u" horiz-adv-x="567" 
d="M484 0h-75v64q-51 -75 -145 -75q-184 0 -184 216v320h75v-307q0 -164 124 -164q58 0 92 39q38 43 38 125v307h75v-525z" />
    <glyph glyph-name="v" unicode="v" horiz-adv-x="522" 
d="M482 525l-188 -525h-66l-188 525h80l142 -438l8 25l134 413h78z" />
    <glyph glyph-name="w" unicode="w" horiz-adv-x="730" 
d="M683 525l-139 -525h-69l-95 352q-10 39 -16 74q-6 -35 -16 -74l-95 -352h-67l-139 525h77l82 -347q6 -27 15 -74q11 50 17 74l94 347h68l94 -347q6 -24 17 -74q5 28 15 74l82 347h75z" />
    <glyph glyph-name="x" unicode="x" horiz-adv-x="504" 
d="M453 0h-83l-120 211l-16 -29l-105 -182h-78l162 271l-151 254h83l109 -192l16 29l94 163h78l-151 -252z" />
    <glyph glyph-name="y" unicode="y" horiz-adv-x="531" 
d="M491 525l-261 -710h-75l72 191l-187 519h79l146 -435l18 53l129 382h79z" />
    <glyph glyph-name="z" unicode="z" horiz-adv-x="492" 
d="M426 0h-372v55l287 407h-264v63h349v-55l-287 -407h287v-63z" />
    <glyph glyph-name="braceleft" unicode="{" horiz-adv-x="397" 
d="M344 -110q-105 3 -154.5 55t-49.5 158v86q0 43 -12.5 57.5t-46.5 14.5h-24v70h24q34 0 46.5 14.5t12.5 57.5v89q0 106 49.5 158t154.5 55v-63q-70 -8 -100 -40t-30 -101v-70q0 -62 -12.5 -91t-46.5 -45q34 -16 46.5 -45t12.5 -91v-65q0 -69 30 -101t100 -40v-63z" />
    <glyph glyph-name="bar" unicode="|" horiz-adv-x="304" 
d="M188 -185h-72v985h72v-985z" />
    <glyph glyph-name="braceright" unicode="}" horiz-adv-x="397" 
d="M340 264h-24q-34 0 -46.5 -14.5t-12.5 -57.5v-89q0 -106 -49.5 -158t-154.5 -55v63q70 8 100 40t30 101v70q0 62 12.5 91t46.5 45q-34 16 -46.5 45t-12.5 91v65q0 69 -30 101t-100 40v63q105 -3 154.5 -55t49.5 -158v-86q0 -43 12.5 -57.5t46.5 -14.5h24v-70z" />
    <glyph glyph-name="asciitilde" unicode="~" horiz-adv-x="552" 
d="M509 422q-27 -66 -58 -94q-34 -32 -85 -32q-43 0 -94 34q-59 39 -86 39q-26 0 -41.5 -17t-35.5 -62l-66 30q27 66 59.5 96t83.5 30q42 0 94 -34q60 -39 86 -39t41 16t36 63z" />
    <glyph glyph-name="exclamdown" unicode="&#xa1;" horiz-adv-x="263" 
d="M193 650q0 -25 -18 -44t-43 -19q-24 0 -42.5 19t-18.5 44t18.5 43t42.5 18q25 0 43 -18t18 -43zM170 0h-77v329l18 183h42l17 -183v-329z" />
    <glyph glyph-name="cent" unicode="&#xa2;" horiz-adv-x="495" 
d="M447 568l-43 -54q-61 51 -128 51q-63 0 -103 -53q-42 -56 -42 -152q0 -98 39.5 -155t108.5 -57q65 0 122 55l44 -47q-58 -59 -131 -70v-97h-77v97q-79 14 -128 80q-54 72 -54 188q0 118 55 192q49 64 127 80v94h77v-92q76 -10 133 -60z" />
    <glyph glyph-name="sterling" unicode="&#xa3;" horiz-adv-x="611" 
d="M552 0h-468v70q50 58 71 101q26 54 27 122h-98v68h87q-9 24 -33 63q-34 56 -34 112q0 82 65 130q61 45 159 45q120 0 216 -87l-47 -57q-77 74 -171 74q-70 0 -107.5 -29.5t-37.5 -74.5q0 -40 32 -94q24 -41 36 -82h152v-68h-145q-4 -121 -84 -222h380v-71z" />
    <glyph glyph-name="currency" unicode="&#xa4;" 
d="M708 345l-166 121q-6 4 -9 3q-5 -2 -2 -10l30 -80h-161v189l80 -30q8 -3 10 2q1 3 -3 9l-121 166l-121 -166q-4 -6 -3 -9q2 -5 10 -2l80 30v-189h-165l30 80q3 8 -2 10q-3 1 -9 -3l-166 -121l166 -121q6 -4 9 -3q5 2 2 10l-30 80h165v-179l-80 30q-8 3 -10 -2q-1 -3 3 -9
l121 -166l121 166q4 6 3 9q-2 5 -10 2l-80 -30v179h161l-30 -80q-3 -8 2 -10q3 -1 9 3z" />
    <glyph glyph-name="yen" unicode="&#xa5;" horiz-adv-x="612" 
d="M575 700l-230 -422v-78h155v-69h-155v-131h-78v131h-164v69h164v77l-230 423h89l104 -201q50 -96 77 -155q27 59 77 155l104 201h87z" />
    <glyph glyph-name="brokenbar" unicode="&#xa6;" horiz-adv-x="272" 
d="M175 0h-78v700h78v-700zM307 745h-59l-151 160h107z" />
    <glyph glyph-name="section" unicode="&#xa7;" horiz-adv-x="628" 
d="M573 268q0 -105 -124 -174q54 -41 54 -106q0 -69 -54 -110.5t-140 -41.5q-104 0 -193 72l46 56q40 -33 74.5 -45.5t84.5 -12.5q46 0 75.5 21t29.5 55q0 35 -31 59.5t-112 44.5q-130 33 -179 75t-49 118q0 105 124 174q-54 41 -54 106q0 69 54 110.5t140 41.5
q104 0 193 -72l-46 -56q-40 33 -74.5 45.5t-84.5 12.5q-46 0 -75.5 -21t-29.5 -55q0 -35 30 -58q32 -26 113 -46q130 -33 179 -75t49 -118zM496 262q0 46 -29 72q-35 30 -129 54q-59 15 -96 30q-110 -51 -110 -133q0 -46 29 -72q35 -30 129 -54q59 -15 96 -30
q110 51 110 133z" />
    <glyph glyph-name="dieresis" unicode="&#xa8;" horiz-adv-x="500" 
d="M402 658q0 -22 -16 -38.5t-39 -16.5q-22 0 -38.5 16.5t-16.5 38.5q0 23 16.5 39.5t38.5 16.5t38.5 -16.5t16.5 -39.5zM208 658q0 -22 -16 -38.5t-38 -16.5q-23 0 -39.5 16t-16.5 39t16.5 39.5t39.5 16.5q22 0 38 -16.5t16 -39.5z" />
    <glyph glyph-name="copyright" unicode="&#xa9;" horiz-adv-x="272" 
d="M175 0h-78v700h78v-700zM311 905l-151 -160h-59l103 160h107z" />
    <glyph glyph-name="ordfeminine" unicode="&#xaa;" horiz-adv-x="455" 
d="M380 282h-68v44q-53 -53 -127 -53q-58 0 -94 30q-44 35 -44 106q0 68 50 104q44 32 114 32q57 0 101 -21v43q0 87 -87 87q-62 0 -115 -32l-27 54q67 35 146 35q151 0 151 -137v-292zM312 388v80q-44 22 -104 22q-94 0 -94 -77q0 -84 81 -84q72 0 117 59z" />
    <glyph glyph-name="guillemotleft" unicode="&#xab;" horiz-adv-x="576" 
d="M531 0h-85l-203 262l203 263h85l-203 -262zM318 0h-85l-203 262l203 263h85l-203 -262z" />
    <glyph glyph-name="logicalnot" unicode="&#xac;" horiz-adv-x="272" 
d="M175 0h-78v700h78v-700zM427 740h-65l-101 103l-101 -103h-63l123 160h84z" />
    <glyph glyph-name="registered" unicode="&#xae;" horiz-adv-x="272" 
d="M175 0h-78v700h78v-700zM401 812q0 -22 -16 -38.5t-39 -16.5q-22 0 -38.5 16.5t-16.5 38.5q0 23 16.5 39.5t38.5 16.5t38.5 -16.5t16.5 -39.5zM207 812q0 -22 -16 -38.5t-38 -16.5q-23 0 -39.5 16t-16.5 39t16.5 39.5t39.5 16.5q22 0 38 -16.5t16 -39.5z" />
    <glyph glyph-name="degree" unicode="&#xb0;" horiz-adv-x="682" 
d="M606 355q0 -181 -96 -273q-87 -82 -237 -82h-171v331h-62v70h62v299h185q145 0 229 -82q90 -90 90 -263zM528 352q0 135 -63.5 206t-183.5 71h-103v-228h142v-70h-142v-260h105q245 0 245 281z" />
    <glyph glyph-name="plusminus" unicode="&#xb1;" horiz-adv-x="688" 
d="M596 0h-73l-306 479q-28 43 -50 88v-567h-75v700h76l303 -488q31 -50 50 -88v576h75v-700zM527 882q0 -63 -31 -98q-27 -32 -71 -32q-40 0 -74 26q-18 14 -37 28q-24 16 -42 16q-31 0 -39 -67h-62q0 63 31 98q27 32 71 32q40 0 74 -26q57 -44 79 -44q30 0 39 67h62z" />
    <glyph glyph-name="twosuperior" unicode="&#xb2;" horiz-adv-x="587" 
d="M530 0h-438v700h423v-71h-345v-220h200v-71h-200v-267h360v-71zM357 745h-59l-151 160h107z" />
    <glyph glyph-name="threesuperior" unicode="&#xb3;" horiz-adv-x="587" 
d="M530 0h-438v700h423v-71h-345v-220h200v-71h-200v-267h360v-71zM465 905l-151 -160h-59l103 160h107z" />
    <glyph glyph-name="acute" unicode="&#xb4;" horiz-adv-x="500" 
d="M384 755l-151 -160h-59l103 160h107z" />
    <glyph glyph-name="paragraph" unicode="&#xb6;" horiz-adv-x="688" 
d="M595 -185h-77v817h-91v-817h-77v446h-76q-96 0 -160 57q-67 61 -67 163q0 101 68 162q63 57 159 57h321v-885z" />
    <glyph glyph-name="cedilla" unicode="&#xb8;" horiz-adv-x="500" 
d="M373 -106q0 -87 -119 -87q-63 0 -118 36l19 32q42 -27 92 -27q67 0 67 43q0 33 -32 33q-28 0 -48 -18l-36 14l25 80h45l-17 -51q22 14 55 14q25 0 44 -15q23 -19 23 -54z" />
    <glyph glyph-name="onesuperior" unicode="&#xb9;" horiz-adv-x="628" 
d="M574 105q-82 -112 -220 -116l-13 -40q22 14 55 14q25 0 44 -15q23 -19 23 -54q0 -87 -119 -87q-63 0 -118 36l19 32q42 -27 92 -27q67 0 67 43q0 33 -32 33q-28 0 -48 -18l-36 14l22 71q-112 15 -180 114t-68 244q0 157 80 259.5t206 102.5q142 0 223 -112l-62 -47
q-35 47 -70 67q-38 21 -93 21q-90 0 -148 -81t-58 -208t59 -209t148 -82q102 0 173 92z" />
    <glyph glyph-name="ordmasculine" unicode="&#xba;" horiz-adv-x="480" 
d="M426 495q0 -103 -54 -164q-52 -57 -134 -57t-131 56q-53 59 -53 162q0 104 54 163q51 56 134 56q82 0 131 -54q53 -58 53 -162zM358 494q0 157 -118 157t-118 -157q0 -78 31.5 -119t86.5 -41t86.5 41t31.5 119z" />
    <glyph glyph-name="guillemotright" unicode="&#xbb;" horiz-adv-x="576" 
d="M546 263l-203 -263h-85l203 262l-203 263h85zM333 263l-203 -263h-85l203 262l-203 263h85z" />
    <glyph glyph-name="onequarter" unicode="&#xbc;" horiz-adv-x="678" 
d="M625 0h-82l-60 178h-289l-61 -178h-80l243 700h86zM459 249l-77 230q-35 104 -43 138q-9 -37 -44 -140l-77 -228h241zM517 878q0 -63 -31 -98q-27 -32 -71 -32q-40 0 -74 26q-18 14 -37 28q-24 16 -42 16q-31 0 -39 -67h-62q0 63 31 98q27 32 71 32q40 0 74 -26
q57 -44 79 -44q30 0 39 67h62z" />
    <glyph glyph-name="onehalf" unicode="&#xbd;" horiz-adv-x="678" 
d="M625 0h-82l-60 178h-289l-61 -178h-80l243 700h86zM459 249l-77 230q-35 104 -43 138q-9 -37 -44 -140l-77 -228h241zM492 808q0 -22 -16 -38.5t-39 -16.5q-22 0 -38.5 16.5t-16.5 38.5q0 23 16.5 39.5t38.5 16.5t38.5 -16.5t16.5 -39.5zM298 808q0 -22 -16 -38.5
t-38 -16.5q-23 0 -39.5 16t-16.5 39t16.5 39.5t39.5 16.5q22 0 38 -16.5t16 -39.5z" />
    <glyph glyph-name="threequarters" unicode="&#xbe;" horiz-adv-x="678" 
d="M625 0h-82l-60 178h-289l-61 -178h-80l230 658q-62 33 -62 105q0 49 33 82.5t84 33.5t84 -33.5t33 -82.5q0 -71 -61 -104zM408 763q0 31 -19 51t-51 20t-51 -20t-19 -51q0 -32 19 -52t51 -20t51 20t19 52zM459 249l-77 230q-35 104 -43 138q-9 -37 -44 -140l-77 -228h241
z" />
    <glyph glyph-name="questiondown" unicode="&#xbf;" horiz-adv-x="561" 
d="M368 650q0 -25 -18 -44t-43 -19q-24 0 -42.5 19t-18.5 44t18.5 43t42.5 18q25 0 43 -18t18 -43zM517 82q-95 -93 -234 -93q-98 0 -157 44.5t-59 127.5q0 67 33 109q24 31 91 72q54 33 67 73q9 24 9 97h77q0 -102 -20 -140q-20 -41 -98 -89q-43 -27 -60 -49
q-21 -27 -21 -67q0 -48 39 -77.5t102 -29.5q98 0 181 77z" />
    <glyph glyph-name="Agrave" unicode="&#xc0;" horiz-adv-x="705" 
d="M643 351q0 -159 -81 -260.5t-211 -101.5t-209.5 100.5t-79.5 259.5t80.5 260.5t210.5 101.5t210 -100.5t80 -259.5zM565 349q0 130 -62 212q-60 79 -153 79q-92 0 -150 -78q-60 -81 -60 -211t60.5 -210.5t153.5 -80.5q92 0 151.5 79.5t59.5 209.5zM520 905l-151 -160h-59
l103 160h107z" />
    <glyph glyph-name="Aacute" unicode="&#xc1;" horiz-adv-x="705" 
d="M643 351q0 -159 -81 -260.5t-211 -101.5t-209.5 100.5t-79.5 259.5t80.5 260.5t210.5 101.5t210 -100.5t80 -259.5zM565 349q0 130 -62 212q-60 79 -153 79q-92 0 -150 -78q-60 -81 -60 -211t60.5 -210.5t153.5 -80.5q92 0 151.5 79.5t59.5 209.5zM516 740h-65l-101 103
l-101 -103h-63l123 160h84z" />
    <glyph glyph-name="Acircumflex" unicode="&#xc2;" horiz-adv-x="705" 
d="M643 351q0 -159 -81 -260.5t-211 -101.5t-209.5 100.5t-79.5 259.5t80.5 260.5t210.5 101.5t210 -100.5t80 -259.5zM565 349q0 130 -62 212q-60 79 -153 79q-92 0 -150 -78q-60 -81 -60 -211t60.5 -210.5t153.5 -80.5q92 0 151.5 79.5t59.5 209.5zM529 878q0 -63 -31 -98
q-27 -32 -71 -32q-40 0 -74 26q-18 14 -37 28q-24 16 -42 16q-31 0 -39 -67h-62q0 63 31 98q27 32 71 32q40 0 74 -26q57 -44 79 -44q30 0 39 67h62z" />
    <glyph glyph-name="Atilde" unicode="&#xc3;" horiz-adv-x="705" 
d="M643 351q0 -159 -81 -260.5t-211 -101.5t-209.5 100.5t-79.5 259.5t80.5 260.5t210.5 101.5t210 -100.5t80 -259.5zM565 349q0 130 -62 212q-60 79 -153 79q-92 0 -150 -78q-60 -81 -60 -211t60.5 -210.5t153.5 -80.5q92 0 151.5 79.5t59.5 209.5zM504 808
q0 -22 -16 -38.5t-39 -16.5q-22 0 -38.5 16.5t-16.5 38.5q0 23 16.5 39.5t38.5 16.5t38.5 -16.5t16.5 -39.5zM310 808q0 -22 -16 -38.5t-38 -16.5q-23 0 -39.5 16t-16.5 39t16.5 39.5t39.5 16.5q22 0 38 -16.5t16 -39.5z" />
    <glyph glyph-name="Adieresis" unicode="&#xc4;" 
d="M708 345l-166 121q-6 4 -9 3q-5 -2 -2 -10l30 -80h-161v189l80 -30q8 -3 10 2q1 3 -3 9l-121 166l-121 -166q-4 -6 -3 -9q2 -5 10 -2l80 30v-189h-165l30 80q3 8 -2 10q-3 1 -9 -3l-166 -121l166 -121q6 -4 9 -3q5 2 2 10l-30 80h165v-179l-80 30q-8 3 -10 -2q-1 -3 3 -9
l121 -166l121 166q4 6 3 9q-2 5 -10 2l-80 -30v179h161l-30 -80q-3 -8 2 -10q3 -1 9 3z" />
    <glyph glyph-name="Aring" unicode="&#xc5;" horiz-adv-x="678" 
d="M591 286q0 -297 -251 -297q-253 0 -253 295v416h78v-414q0 -226 179 -226q89 0 129 54.5t40 169.5v416h78v-414zM379 730h-59l-151 160h107z" />
    <glyph glyph-name="AE" unicode="&#xc6;" horiz-adv-x="998" 
d="M941 0h-438v178h-273l-117 -178h-89l470 700h432v-71h-349v-220h204v-71h-204v-267h364v-71zM505 600q-11 -19 -65 -101l-164 -250h227v222q0 23 1 70t1 59z" />
    <glyph glyph-name="Ccedilla" unicode="&#xc7;" horiz-adv-x="678" 
d="M591 286q0 -297 -251 -297q-253 0 -253 295v416h78v-414q0 -226 179 -226q89 0 129 54.5t40 169.5v416h78v-414zM507 890l-151 -160h-59l103 160h107z" />
    <glyph glyph-name="Egrave" unicode="&#xc8;" horiz-adv-x="678" 
d="M591 286q0 -297 -251 -297q-253 0 -253 295v416h78v-414q0 -226 179 -226q89 0 129 54.5t40 169.5v416h78v-414zM504 745h-65l-101 103l-101 -103h-63l123 160h84z" />
    <glyph glyph-name="Eacute" unicode="&#xc9;" horiz-adv-x="678" 
d="M591 286q0 -297 -251 -297q-253 0 -253 295v416h78v-414q0 -226 179 -226q89 0 129 54.5t40 169.5v416h78v-414zM491 808q0 -22 -16 -38.5t-39 -16.5q-22 0 -38.5 16.5t-16.5 38.5q0 23 16.5 39.5t38.5 16.5t38.5 -16.5t16.5 -39.5zM297 808q0 -22 -16 -38.5t-38 -16.5
q-23 0 -39.5 16t-16.5 39t16.5 39.5t39.5 16.5q22 0 38 -16.5t16 -39.5z" />
    <glyph glyph-name="Ecircumflex" unicode="&#xca;" horiz-adv-x="652" 
d="M605 700l-240 -422v-278h-78v277l-240 423h89l112 -201q47 -84 79 -150q32 66 79 150l112 201h87zM499 886l-151 -160h-59l103 160h107z" />
    <glyph glyph-name="Edieresis" unicode="&#xcb;" horiz-adv-x="618" 
d="M577 365q0 -102 -65 -159t-172 -57h-170v-149h-78v700h78v-126h184q100 0 159 -51q64 -56 64 -158zM499 362q0 141 -148 141h-181v-283h171q158 0 158 142z" />
    <glyph glyph-name="Igrave" unicode="&#xcc;" horiz-adv-x="539" 
d="M459 0h-75v64q-69 -75 -164 -75q-71 0 -115 36q-53 44 -53 132q0 83 62 128q54 40 139 40q76 0 131 -30v62q0 116 -114 116q-74 0 -143 -40l-28 61q77 42 176 42q184 0 184 -170v-366zM384 129v106q-54 30 -135 30q-123 0 -123 -103q0 -112 107 -112q94 0 151 79z
M319 595h-59l-151 160h107z" />
    <glyph glyph-name="Iacute" unicode="&#xcd;" horiz-adv-x="539" 
d="M459 0h-75v64q-69 -75 -164 -75q-71 0 -115 36q-53 44 -53 132q0 83 62 128q54 40 139 40q76 0 131 -30v62q0 116 -114 116q-74 0 -143 -40l-28 61q77 42 176 42q184 0 184 -170v-366zM384 129v106q-54 30 -135 30q-123 0 -123 -103q0 -112 107 -112q94 0 151 79z
M437 755l-151 -160h-59l103 160h107z" />
    <glyph glyph-name="Icircumflex" unicode="&#xce;" horiz-adv-x="539" 
d="M459 0h-75v64q-69 -75 -164 -75q-71 0 -115 36q-53 44 -53 132q0 83 62 128q54 40 139 40q76 0 131 -30v62q0 116 -114 116q-74 0 -143 -40l-28 61q77 42 176 42q184 0 184 -170v-366zM384 129v106q-54 30 -135 30q-123 0 -123 -103q0 -112 107 -112q94 0 151 79z
M436 590h-65l-101 103l-101 -103h-63l123 160h84z" />
    <glyph glyph-name="Idieresis" unicode="&#xcf;" horiz-adv-x="539" 
d="M459 0h-75v64q-69 -75 -164 -75q-71 0 -115 36q-53 44 -53 132q0 83 62 128q54 40 139 40q76 0 131 -30v62q0 116 -114 116q-74 0 -143 -40l-28 61q77 42 176 42q184 0 184 -170v-366zM384 129v106q-54 30 -135 30q-123 0 -123 -103q0 -112 107 -112q94 0 151 79z
M448 728q0 -63 -31 -98q-27 -32 -71 -32q-40 0 -74 26q-18 14 -37 28q-24 16 -42 16q-31 0 -39 -67h-62q0 63 31 98q27 32 71 32q40 0 74 -26q57 -44 79 -44q30 0 39 67h62z" />
    <glyph glyph-name="Eth" unicode="&#xd0;" horiz-adv-x="539" 
d="M459 0h-75v64q-69 -75 -164 -75q-71 0 -115 36q-53 44 -53 132q0 83 62 128q54 40 139 40q76 0 131 -30v62q0 116 -114 116q-74 0 -143 -40l-28 61q77 42 176 42q184 0 184 -170v-366zM384 129v106q-54 30 -135 30q-123 0 -123 -103q0 -112 107 -112q94 0 151 79z
M422 653q0 -22 -16 -38.5t-39 -16.5q-22 0 -38.5 16.5t-16.5 38.5q0 23 16.5 39.5t38.5 16.5t38.5 -16.5t16.5 -39.5zM228 653q0 -22 -16 -38.5t-38 -16.5q-23 0 -39.5 16t-16.5 39t16.5 39.5t39.5 16.5q22 0 38 -16.5t16 -39.5z" />
    <glyph glyph-name="Ntilde" unicode="&#xd1;" horiz-adv-x="539" 
d="M459 0h-75v64q-69 -75 -164 -75q-71 0 -115 36q-53 44 -53 132q0 83 62 128q54 40 139 40q76 0 131 -30v62q0 116 -114 116q-74 0 -143 -40l-28 61q77 42 176 42q184 0 184 -170v-366zM384 129v106q-54 30 -135 30q-123 0 -123 -103q0 -112 107 -112q94 0 151 79z
M388 716q0 -49 -33.5 -83t-83.5 -34t-83.5 34t-33.5 83t33 82.5t84 33.5t84 -33.5t33 -82.5zM341 716q0 31 -19 51t-51 20t-51 -20t-19 -51q0 -32 19 -52t51 -20t51 20t19 52z" />
    <glyph glyph-name="Ograve" unicode="&#xd2;" horiz-adv-x="495" 
d="M447 474l-45 -56q-59 53 -126 53q-63 0 -103 -53q-42 -56 -42 -152q0 -98 39.5 -155t108.5 -57q63 0 121 56l45 -48q-71 -73 -168 -73l-13 -40q22 14 55 14q25 0 44 -15q23 -19 23 -54q0 -87 -119 -87q-63 0 -118 36l19 32q42 -27 92 -27q67 0 67 43q0 33 -32 33
q-28 0 -48 -18l-36 14l23 73q-78 15 -126 81q-53 72 -53 186q0 136 72 211q62 65 154 65q95 0 166 -62z" />
    <glyph glyph-name="Oacute" unicode="&#xd3;" horiz-adv-x="540" 
d="M483 278q0 -23 -3 -41h-350q5 -85 43.5 -134t102.5 -49q70 0 145 50l35 -54q-52 -33 -88 -45q-44 -16 -100 -16q-85 0 -142 61q-71 74 -71 215q0 123 61 197t156 74q100 0 157 -73q54 -69 54 -185zM413 298q-10 173 -142 173q-128 0 -141 -173h283zM319 595h-59l-151 160
h107z" />
    <glyph glyph-name="Ocircumflex" unicode="&#xd4;" horiz-adv-x="540" 
d="M483 278q0 -23 -3 -41h-350q5 -85 43.5 -134t102.5 -49q70 0 145 50l35 -54q-52 -33 -88 -45q-44 -16 -100 -16q-85 0 -142 61q-71 74 -71 215q0 123 61 197t156 74q100 0 157 -73q54 -69 54 -185zM413 298q-10 173 -142 173q-128 0 -141 -173h283zM437 755l-151 -160
h-59l103 160h107z" />
    <glyph glyph-name="Otilde" unicode="&#xd5;" horiz-adv-x="540" 
d="M483 278q0 -23 -3 -41h-350q5 -85 43.5 -134t102.5 -49q70 0 145 50l35 -54q-52 -33 -88 -45q-44 -16 -100 -16q-85 0 -142 61q-71 74 -71 215q0 123 61 197t156 74q100 0 157 -73q54 -69 54 -185zM413 298q-10 173 -142 173q-128 0 -141 -173h283zM436 585h-65l-101 103
l-101 -103h-63l123 160h84z" />
    <glyph glyph-name="Odieresis" unicode="&#xd6;" horiz-adv-x="540" 
d="M483 278q0 -23 -3 -41h-350q5 -85 43.5 -134t102.5 -49q70 0 145 50l35 -54q-52 -33 -88 -45q-44 -16 -100 -16q-85 0 -142 61q-71 74 -71 215q0 123 61 197t156 74q100 0 157 -73q54 -69 54 -185zM413 298q-10 173 -142 173q-128 0 -141 -173h283zM423 653
q0 -22 -16 -38.5t-39 -16.5q-22 0 -38.5 16.5t-16.5 38.5q0 23 16.5 39.5t38.5 16.5t38.5 -16.5t16.5 -39.5zM229 653q0 -22 -16 -38.5t-38 -16.5q-23 0 -39.5 16t-16.5 39t16.5 39.5t39.5 16.5q22 0 38 -16.5t16 -39.5z" />
    <glyph glyph-name="multiply" unicode="&#xd7;" horiz-adv-x="251" 
d="M163 0h-75v525h75v-525zM298 595h-59l-151 160h107z" />
    <glyph glyph-name="Oslash" unicode="&#xd8;" horiz-adv-x="705" 
d="M643 351q0 -159 -81 -260.5t-211 -101.5q-69 0 -124 29l-31 -68h-69l48 104q-113 100 -113 295q0 159 80.5 260.5t210.5 101.5q59 0 111 -23l28 62h69l-43 -95q125 -98 125 -304zM568 349q0 152 -82 236l-229 -501q44 -27 97 -27q93 0 153.5 80.5t60.5 211.5zM434 623
q-40 20 -84 20q-93 0 -153 -80t-60 -212q0 -142 71 -224z" />
    <glyph glyph-name="Ugrave" unicode="&#xd9;" horiz-adv-x="251" 
d="M163 0h-75v525h75v-525zM303 755l-151 -160h-59l103 160h107z" />
    <glyph glyph-name="Uacute" unicode="&#xda;" horiz-adv-x="251" 
d="M163 0h-75v525h75v-525zM418 580h-65l-101 103l-101 -103h-63l123 160h84z" />
    <glyph glyph-name="Ucircumflex" unicode="&#xdb;" horiz-adv-x="251" 
d="M163 0h-75v525h75v-525zM392 648q0 -22 -16 -38.5t-39 -16.5q-22 0 -38.5 16.5t-16.5 38.5q0 23 16.5 39.5t38.5 16.5t38.5 -16.5t16.5 -39.5zM198 648q0 -22 -16 -38.5t-38 -16.5q-23 0 -39.5 16t-16.5 39t16.5 39.5t39.5 16.5q22 0 38 -16.5t16 -39.5z" />
    <glyph glyph-name="Udieresis" unicode="&#xdc;" horiz-adv-x="566" 
d="M511 298q0 -309 -230 -309q-96 0 -158 63q-68 68 -68 183t65 184q59 63 145 63q119 0 178 -89q-30 133 -111 196l-56 -63l-51 43l48 54q-44 18 -90 22v66q73 -5 135 -37l34 37l51 -43l-29 -32q137 -112 137 -338zM436 237q0 91 -45 137q-42 43 -115 43q-68 0 -106.5 -47
t-38.5 -133q0 -89 44 -138q40 -45 108 -45t109 45q44 49 44 138z" />
    <glyph glyph-name="Yacute" unicode="&#xdd;" horiz-adv-x="567" 
d="M487 0h-75v307q0 164 -124 164q-58 0 -92 -39q-38 -43 -38 -125v-307h-75v525h75v-64q51 75 145 75q184 0 184 -216v-320zM458 728q0 -63 -31 -98q-27 -32 -71 -32q-40 0 -74 26q-18 14 -37 28q-24 16 -42 16q-31 0 -39 -67h-62q0 63 31 98q27 32 71 32q40 0 74 -26
q57 -44 79 -44q30 0 39 67h62z" />
    <glyph glyph-name="Thorn" unicode="&#xde;" horiz-adv-x="566" 
d="M511 266q0 -129 -67 -205q-63 -72 -163 -72t-161 70q-65 74 -65 203t67 204q63 70 163 70t161 -68q65 -73 65 -202zM436 264q0 101 -41.5 154t-111.5 53t-111 -53t-41 -154t41 -155.5t111 -54.5t111.5 54.5t41.5 155.5zM327 595h-59l-151 160h107z" />
    <glyph glyph-name="germandbls" unicode="&#xdf;" horiz-adv-x="572" 
d="M517 226q0 -117 -76 -175q-67 -51 -183 -51h-15v66h18q181 0 181 153q0 73 -54 112q-48 34 -125 34h-20v65h23q122 0 122 118q0 52 -31.5 82.5t-84.5 30.5q-51 0 -82.5 -34.5t-31.5 -97.5v-680l-75 -42v709q0 100 51.5 155t139.5 55q85 0 137 -50.5t52 -126.5
q0 -104 -91 -145q145 -35 145 -178z" />
    <glyph glyph-name="agrave" unicode="&#xe0;" horiz-adv-x="566" 
d="M511 266q0 -129 -67 -205q-63 -72 -163 -72t-161 70q-65 74 -65 203t67 204q63 70 163 70t161 -68q65 -73 65 -202zM436 264q0 101 -41.5 154t-111.5 53t-111 -53t-41 -154t41 -155.5t111 -54.5t111.5 54.5t41.5 155.5zM445 755l-151 -160h-59l103 160h107z" />
    <glyph glyph-name="aacute" unicode="&#xe1;" horiz-adv-x="566" 
d="M511 266q0 -129 -67 -205q-63 -72 -163 -72t-161 70q-65 74 -65 203t67 204q63 70 163 70t161 -68q65 -73 65 -202zM436 264q0 101 -41.5 154t-111.5 53t-111 -53t-41 -154t41 -155.5t111 -54.5t111.5 54.5t41.5 155.5zM447 585h-65l-101 103l-101 -103h-63l123 160h84z
" />
    <glyph glyph-name="acircumflex" unicode="&#xe2;" horiz-adv-x="566" 
d="M511 266q0 -129 -67 -205q-63 -72 -163 -72t-161 70q-65 74 -65 203t67 204q63 70 163 70t161 -68q65 -73 65 -202zM436 264q0 101 -41.5 154t-111.5 53t-111 -53t-41 -154t41 -155.5t111 -54.5t111.5 54.5t41.5 155.5zM460 728q0 -63 -31 -98q-27 -32 -71 -32
q-40 0 -74 26q-18 14 -37 28q-24 16 -42 16q-31 0 -39 -67h-62q0 63 31 98q27 32 71 32q40 0 74 -26q57 -44 79 -44q30 0 39 67h62z" />
    <glyph glyph-name="atilde" unicode="&#xe3;" horiz-adv-x="566" 
d="M511 266q0 -129 -67 -205q-63 -72 -163 -72t-161 70q-65 74 -65 203t67 204q63 70 163 70t161 -68q65 -73 65 -202zM436 264q0 101 -41.5 154t-111.5 53t-111 -53t-41 -154t41 -155.5t111 -54.5t111.5 54.5t41.5 155.5zM434 648q0 -22 -16 -38.5t-39 -16.5
q-22 0 -38.5 16.5t-16.5 38.5q0 23 16.5 39.5t38.5 16.5t38.5 -16.5t16.5 -39.5zM240 648q0 -22 -16 -38.5t-38 -16.5q-23 0 -39.5 16t-16.5 39t16.5 39.5t39.5 16.5q22 0 38 -16.5t16 -39.5z" />
    <glyph glyph-name="adieresis" unicode="&#xe4;" 
d="M708 345l-166 121q-6 4 -9 3q-5 -2 -2 -10l30 -80h-161v189l80 -30q8 -3 10 2q1 3 -3 9l-121 166l-121 -166q-4 -6 -3 -9q2 -5 10 -2l80 30v-189h-165l30 80q3 8 -2 10q-3 1 -9 -3l-166 -121l166 -121q6 -4 9 -3q5 2 2 10l-30 80h165v-179l-80 30q-8 3 -10 -2q-1 -3 3 -9
l121 -166l121 166q4 6 3 9q-2 5 -10 2l-80 -30v179h161l-30 -80q-3 -8 2 -10q3 -1 9 3z" />
    <glyph glyph-name="aring" unicode="&#xe5;" horiz-adv-x="567" 
d="M484 0h-75v64q-51 -75 -145 -75q-184 0 -184 216v320h75v-307q0 -164 124 -164q58 0 92 39q38 43 38 125v307h75v-525zM318 595h-59l-151 160h107z" />
    <glyph glyph-name="ae" unicode="&#xe6;" horiz-adv-x="838" 
d="M781 278q0 -23 -3 -41h-336q11 -183 139 -183q42 0 74 13q22 9 64 37l35 -54q-53 -34 -84 -45q-42 -16 -97 -16q-105 0 -162 91q-43 -49 -87.5 -70t-110.5 -21q-69 0 -111 36q-50 44 -50 132q0 84 58 128q52 40 136 40q69 0 124 -30v62q0 116 -107 116q-67 0 -136 -40
l-28 61q77 42 169 42q134 0 153 -95q49 95 156 95q100 0 153 -73q51 -68 51 -185zM711 298q-10 173 -135 173q-121 0 -134 -173h269zM384 139q-13 40 -16 97q-53 29 -126 29q-116 0 -116 -103q0 -112 100 -112q90 0 158 89z" />
    <glyph glyph-name="ccedilla" unicode="&#xe7;" horiz-adv-x="567" 
d="M484 0h-75v64q-51 -75 -145 -75q-184 0 -184 216v320h75v-307q0 -164 124 -164q58 0 92 39q38 43 38 125v307h75v-525zM451 755l-151 -160h-59l103 160h107z" />
    <glyph glyph-name="egrave" unicode="&#xe8;" horiz-adv-x="567" 
d="M484 0h-75v64q-51 -75 -145 -75q-184 0 -184 216v320h75v-307q0 -164 124 -164q58 0 92 39q38 43 38 125v307h75v-525zM448 595h-65l-101 103l-101 -103h-63l123 160h84z" />
    <glyph glyph-name="eacute" unicode="&#xe9;" horiz-adv-x="567" 
d="M484 0h-75v64q-51 -75 -145 -75q-184 0 -184 216v320h75v-307q0 -164 124 -164q58 0 92 39q38 43 38 125v307h75v-525zM435 658q0 -22 -16 -38.5t-39 -16.5q-22 0 -38.5 16.5t-16.5 38.5q0 23 16.5 39.5t38.5 16.5t38.5 -16.5t16.5 -39.5zM241 658q0 -22 -16 -38.5
t-38 -16.5q-23 0 -39.5 16t-16.5 39t16.5 39.5t39.5 16.5q22 0 38 -16.5t16 -39.5z" />
    <glyph glyph-name="ecircumflex" unicode="&#xea;" horiz-adv-x="531" 
d="M491 525l-261 -710h-75l72 191l-187 519h79l146 -435l18 53l129 382h79zM435 745l-151 -160h-59l103 160h107z" />
    <glyph glyph-name="edieresis" unicode="&#xeb;" horiz-adv-x="559" 
d="M504 271q0 -134 -58 -211q-54 -71 -140 -71t-148 70v-210l-75 -42v880l75 42v-268q69 75 158 75q84 0 133 -63q55 -70 55 -202zM430 270q0 98 -35 149.5t-98 51.5q-78 0 -139 -76v-262q52 -79 142 -79q130 0 130 216z" />
    <glyph glyph-name="igrave" unicode="&#xec;" horiz-adv-x="531" 
d="M491 525l-261 -710h-75l72 191l-187 519h79l146 -435l18 53l129 382h79zM418 648q0 -22 -16 -38.5t-39 -16.5q-22 0 -38.5 16.5t-16.5 38.5q0 23 16.5 39.5t38.5 16.5t38.5 -16.5t16.5 -39.5zM224 648q0 -22 -16 -38.5t-38 -16.5q-23 0 -39.5 16t-16.5 39t16.5 39.5
t39.5 16.5q22 0 38 -16.5t16 -39.5z" />
    <glyph glyph-name="iacute" unicode="&#xed;" horiz-adv-x="592" 
d="M522 184q0 -85 -61 -139q-64 -56 -171 -56q-140 0 -235 97l52 58q87 -84 186 -84q70 0 110.5 32.5t40.5 87.5q0 49 -36 81.5t-131 66.5q-114 41 -158 85t-44 119q0 83 60 131t159 48q119 0 213 -75l-50 -61q-79 65 -168 65q-68 0 -104 -31q-32 -27 -32 -72q0 -46 31 -73
q34 -32 135 -68q116 -42 159.5 -88t43.5 -124zM457 914l-123 -160h-84l-123 160h65l101 -103l101 103h63z" />
    <glyph glyph-name="icircumflex" unicode="&#xee;" horiz-adv-x="467" 
d="M408 137q0 -73 -56 -113q-49 -35 -124 -35q-101 0 -185 67l44 55q66 -58 143 -58q106 0 106 81q0 32 -26.5 54t-97.5 53q-84 36 -114 66q-35 35 -35 95t46 97t118 37q100 0 168 -56l-42 -55q-60 47 -131 47q-41 0 -64 -18t-23 -47q0 -32 25 -52q21 -18 91 -50
q87 -39 116 -66q41 -37 41 -102zM393 755l-123 -160h-84l-123 160h65l101 -103l101 103h63z" />
    <glyph glyph-name="idieresis" unicode="&#xef;" horiz-adv-x="628" 
d="M561 0h-500v68l331 451q34 46 85 113h-396v68h480v-68l-331 -451q-34 -46 -85 -113h416v-68zM481 905l-123 -160h-84l-123 160h65l101 -103l101 103h63z" />
    <glyph glyph-name="eth" unicode="&#xf0;" horiz-adv-x="492" 
d="M426 0h-372v55l287 407h-264v63h349v-55l-287 -407h287v-63zM415 755l-123 -160h-84l-123 160h65l101 -103l101 103h63z" />
    <glyph glyph-name="ntilde" unicode="&#xf1;" horiz-adv-x="762" 
d="M717 301h-45v308q-6 -23 -24 -67l-105 -252l-102 252q-19 47 -24 67v-308h-45v399h52l94 -239q22 -56 27 -73q9 29 26 73l95 239h51v-399zM302 658h-116v-357h-48v357h-116v42h280v-42z" />
    <glyph glyph-name="ograve" unicode="&#xf2;" horiz-adv-x="652" 
d="M605 700l-240 -422v-278h-78v277l-240 423h89l112 -201q47 -84 79 -150q32 66 79 150l112 201h87zM477 798q0 -22 -16 -38.5t-39 -16.5q-22 0 -38.5 16.5t-16.5 38.5q0 23 16.5 39.5t38.5 16.5t38.5 -16.5t16.5 -39.5zM283 798q0 -22 -16 -38.5t-38 -16.5q-23 0 -39.5 16
t-16.5 39t16.5 39.5t39.5 16.5q22 0 38 -16.5t16 -39.5z" />
    <glyph glyph-name="oacute" unicode="&#xf3;" 
d="M708 345l-166 -121q-6 -4 -9 -3q-5 2 -2 10l30 80h-161v-179l80 30q8 3 10 -2q1 -3 -3 -9l-121 -166l-121 166q-4 6 -3 9q2 5 10 2l80 -30v179h-165l30 -80q3 -8 -2 -10q-3 -1 -9 3l-166 121l166 121q6 4 9 3q5 -2 2 -10l-30 -80h165v189l-80 -30q-8 -3 -10 2q-1 3 3 9
l121 166l121 -166q4 -6 3 -9q-2 -5 -10 -2l-80 30v-189h161l-30 80q-3 8 2 10q3 1 9 -3z" />
    <glyph glyph-name="ocircumflex" unicode="&#xf4;" 
d="M708 345l-166 121q-6 4 -9 3q-5 -2 -2 -10l30 -80h-161v189l80 -30q8 -3 10 2q1 3 -3 9l-121 166l-121 -166q-4 -6 -3 -9q2 -5 10 -2l80 30v-189h-165l30 80q3 8 -2 10q-3 1 -9 -3l-166 -121l166 -121q6 -4 9 -3q5 2 2 10l-30 80h165v-179l-80 30q-8 3 -10 -2q-1 -3 3 -9
l121 -166l121 166q4 6 3 9q-2 5 -10 2l-80 -30v179h161l-30 -80q-3 -8 2 -10q3 -1 9 3z" />
    <glyph glyph-name="otilde" unicode="&#xf5;" horiz-adv-x="630" 
d="M575 310h-395l30 -75q2 -6 -3 -9q-4 -3 -11 2l-176 117l176 117q7 5 11 2q5 -3 3 -9l-30 -75h395v-70z" />
    <glyph glyph-name="odieresis" unicode="&#xf6;" horiz-adv-x="366" 
d="M302 172q3 -4 -2 -11l-117 -176l-117 176q-5 7 -2 11q3 5 9 3l75 -30v555h70v-555l75 30q6 2 9 -3z" />
    <glyph glyph-name="divide" unicode="&#xf7;" horiz-adv-x="580" 
d="M535 700l-264 -700h-70l-155 340h80l49 -112q38 -87 60 -151q19 60 54 156l171 467h75z" />
    <glyph glyph-name="oslash" unicode="&#xf8;" horiz-adv-x="566" 
d="M511 266q0 -129 -67 -205q-63 -72 -163 -72q-48 0 -86 16l-26 -55h-66l41 86q-89 71 -89 226q0 129 67 204q63 70 163 70q47 0 89 -17l27 56h66l-42 -87q86 -71 86 -222zM438 264q0 103 -44 158l-171 -358q27 -12 60 -12q71 0 113 55t42 157zM346 460q-27 13 -63 13
q-71 0 -111 -52q-43 -55 -43 -157q0 -106 46 -163z" />
    <glyph glyph-name="ugrave" unicode="&#xf9;" horiz-adv-x="366" 
d="M302 528q-3 -5 -9 -3l-75 30v-555h-70v555l-75 -30q-6 -2 -9 3q-3 4 2 11l117 176l117 -176q5 -7 2 -11z" />
    <glyph glyph-name="uacute" unicode="&#xfa;" horiz-adv-x="559" 
d="M476 0h-75v64q-69 -75 -158 -75q-84 0 -133 63q-55 70 -55 202q0 134 58 211q54 71 140 71t148 -70v59h75v-525zM401 130v262q-52 79 -142 79q-130 0 -130 -216q0 -98 35 -149.5t98 -51.5q78 0 139 76z" />
    <glyph glyph-name="ucircumflex" unicode="&#xfb;" horiz-adv-x="836" 
d="M779 350q0 -160 -102.5 -260.5t-258.5 -100.5t-257 100q-104 101 -104 261t104 261q101 100 257 100t258.5 -100.5t102.5 -260.5zM730 350q0 138 -89 226.5t-223 88.5t-223 -88.5t-89 -226.5t89 -226.5t223 -88.5t223 88.5t89 226.5zM586 426q0 -58 -38 -90.5t-101 -32.5
h-92v-154h-53v399h153q58 0 94.5 -31t36.5 -91zM534 427q0 74 -83 74h-96v-149h90q89 0 89 75z" />
    <glyph glyph-name="udieresis" unicode="&#xfc;" 
d="M708 345l-166 121q-6 4 -9 3q-5 -2 -2 -10l30 -80h-161v189l80 -30q8 -3 10 2q1 3 -3 9l-121 166l-121 -166q-4 -6 -3 -9q2 -5 10 -2l80 30v-189h-165l30 80q3 8 -2 10q-3 1 -9 -3l-166 -121l166 -121q6 -4 9 -3q5 2 2 10l-30 80h165v-179l-80 30q-8 3 -10 -2q-1 -3 3 -9
l121 -166l121 166q4 6 3 9q-2 5 -10 2l-80 -30v179h161l-30 -80q-3 -8 2 -10q3 -1 9 3z" />
    <glyph glyph-name="yacute" unicode="&#xfd;" 
d="M708 345l-166 121q-6 4 -9 3q-5 -2 -2 -10l30 -80h-161v189l80 -30q8 -3 10 2q1 3 -3 9l-121 166l-121 -166q-4 -6 -3 -9q2 -5 10 -2l80 30v-189h-165l30 80q3 8 -2 10q-3 1 -9 -3l-166 -121l166 -121q6 -4 9 -3q5 2 2 10l-30 80h165v-179l-80 30q-8 3 -10 -2q-1 -3 3 -9
l121 -166l121 166q4 6 3 9q-2 5 -10 2l-80 -30v179h161l-30 -80q-3 -8 2 -10q3 -1 9 3z" />
    <glyph glyph-name="thorn" unicode="&#xfe;" horiz-adv-x="366" 
d="M302 172q3 -4 -2 -11l-117 -176l-117 176q-5 7 -2 11q3 5 9 3l75 -30v410l-75 -30q-6 -2 -9 3q-3 4 2 11l117 176l117 -176q5 -7 2 -11q-3 -5 -9 -3l-75 30v-410l75 30q6 2 9 -3z" />
    <glyph glyph-name="ydieresis" unicode="&#xff;" 
d="M708 345l-166 121q-6 4 -9 3q-5 -2 -2 -10l30 -80h-161v189l80 -30q8 -3 10 2q1 3 -3 9l-121 166l-121 -166q-4 -6 -3 -9q2 -5 10 -2l80 30v-189h-165l30 80q3 8 -2 10q-3 1 -9 -3l-166 -121l166 -121q6 -4 9 -3q5 2 2 10l-30 80h165v-179l-80 30q-8 3 -10 -2q-1 -3 3 -9
l121 -166l121 166q4 6 3 9q-2 5 -10 2l-80 -30v179h161l-30 -80q-3 -8 2 -10q3 -1 9 3z" />
    <glyph glyph-name="dotlessi" unicode="&#x131;" horiz-adv-x="251" 
d="M163 0h-75v525h75v-525z" />
    <glyph glyph-name="Lslash" unicode="&#x141;" horiz-adv-x="585" 
d="M526 0h-424v238l-62 -54v89l62 54v373h78v-312l161 137v-89l-161 -137v-228h346v-71z" />
    <glyph glyph-name="lslash" unicode="&#x142;" horiz-adv-x="261" 
d="M217 359l-49 -43v-316h-75v256l-49 -43v91l49 43v340l75 42v-323l49 44v-91z" />
    <glyph glyph-name="OE" unicode="&#x152;" horiz-adv-x="1043" 
d="M986 0h-427v116q-36 -62 -79 -91q-52 -36 -131 -36q-129 0 -208 101t-79 260t79 260t208 101q139 0 210 -124v113h412v-71h-342v-220h197v-71h-197v-267h357v-71zM559 349q0 131 -59.5 211t-152.5 80q-92 0 -149.5 -79t-57.5 -210t59 -211t152 -80q92 0 150 79t58 210z
" />
    <glyph glyph-name="oe" unicode="&#x153;" horiz-adv-x="896" 
d="M839 278q0 -23 -3 -41h-340q5 -85 42.5 -134t98.5 -49q65 0 140 50l35 -54q-96 -61 -183 -61q-57 0 -104 36t-67 89q-51 -125 -182 -125q-95 0 -156 70q-65 74 -65 203q0 128 67 204q62 70 158 70q65 0 114 -37q45 -33 66 -87q22 55 65 88q47 36 108 36q96 0 151 -71.5
t55 -186.5zM769 298q-5 80 -38 125q-36 48 -99 48q-123 0 -136 -173h273zM426 264q0 100 -42 155q-39 52 -106 52t-107 -53t-40 -154t40.5 -155.5t106.5 -54.5q67 0 107.5 54.5t40.5 155.5z" />
    <glyph glyph-name="Scaron" unicode="&#x160;" 
d="M708 345l-166 121q-6 4 -9 3q-5 -2 -2 -10l30 -80h-161v189l80 -30q8 -3 10 2q1 3 -3 9l-121 166l-121 -166q-4 -6 -3 -9q2 -5 10 -2l80 30v-189h-165l30 80q3 8 -2 10q-3 1 -9 -3l-166 -121l166 -121q6 -4 9 -3q5 2 2 10l-30 80h165v-179l-80 30q-8 3 -10 -2q-1 -3 3 -9
l121 -166l121 166q4 6 3 9q-2 5 -10 2l-80 -30v179h161l-30 -80q-3 -8 2 -10q3 -1 9 3z" />
    <glyph glyph-name="scaron" unicode="&#x161;" 
d="M708 345l-166 121q-6 4 -9 3q-5 -2 -2 -10l30 -80h-161v189l80 -30q8 -3 10 2q1 3 -3 9l-121 166l-121 -166q-4 -6 -3 -9q2 -5 10 -2l80 30v-189h-165l30 80q3 8 -2 10q-3 1 -9 -3l-166 -121l166 -121q6 -4 9 -3q5 2 2 10l-30 80h165v-179l-80 30q-8 3 -10 -2q-1 -3 3 -9
l121 -166l121 166q4 6 3 9q-2 5 -10 2l-80 -30v179h161l-30 -80q-3 -8 2 -10q3 -1 9 3z" />
    <glyph glyph-name="Zcaron" unicode="&#x17d;" 
d="M708 345l-166 121q-6 4 -9 3q-5 -2 -2 -10l30 -80h-161v189l80 -30q8 -3 10 2q1 3 -3 9l-121 166l-121 -166q-4 -6 -3 -9q2 -5 10 -2l80 30v-189h-165l30 80q3 8 -2 10q-3 1 -9 -3l-166 -121l166 -121q6 -4 9 -3q5 2 2 10l-30 80h165v-179l-80 30q-8 3 -10 -2q-1 -3 3 -9
l121 -166l121 166q4 6 3 9q-2 5 -10 2l-80 -30v179h161l-30 -80q-3 -8 2 -10q3 -1 9 3z" />
    <glyph glyph-name="florin" unicode="&#x192;" horiz-adv-x="393" 
d="M333 631q-25 12 -68 12q-61 0 -61 -58v-60h107v-63h-107v-613l-75 -42v655h-72v63h72v57q0 129 131 129q46 0 73 -9v-71z" />
    <glyph glyph-name="circumflex" unicode="&#x2c6;" horiz-adv-x="500" 
d="M415 595h-65l-101 103l-101 -103h-63l123 160h84z" />
    <glyph glyph-name="caron" unicode="&#x2c7;" horiz-adv-x="500" 
d="M415 755l-123 -160h-84l-123 160h65l101 -103l101 103h63z" />
    <glyph glyph-name="macron" unicode="&#xaf;" horiz-adv-x="500" 
d="M386 618h-272v70h272v-70z" />
    <glyph glyph-name="macron" unicode="&#x2c9;" horiz-adv-x="500" 
d="M386 618h-272v70h272v-70z" />
    <glyph glyph-name="breve" unicode="&#x2d8;" horiz-adv-x="500" 
d="M419 755q-4 -75 -48 -117.5t-122 -42.5q-73 0 -118.5 43t-49.5 117h62q7 -104 108 -104q98 0 107 104h61z" />
    <glyph glyph-name="dotaccent" unicode="&#x2d9;" horiz-adv-x="500" 
d="M305 658q0 -22 -16 -38.5t-39 -16.5q-22 0 -38.5 16.5t-16.5 38.5q0 23 16.5 39.5t38.5 16.5t38.5 -16.5t16.5 -39.5z" />
    <glyph glyph-name="ring" unicode="&#x2da;" horiz-adv-x="500" 
d="M367 716q0 -49 -33.5 -83t-83.5 -34t-83.5 34t-33.5 83t33 82.5t84 33.5t84 -33.5t33 -82.5zM320 716q0 31 -19 51t-51 20t-51 -20t-19 -51q0 -32 19 -52t51 -20t51 20t19 52z" />
    <glyph glyph-name="ogonek" unicode="&#x2db;" horiz-adv-x="500" 
d="M369 -154q-71 -39 -125 -39q-91 0 -91 83q0 56 84 110h52q-74 -51 -74 -101q0 -46 46 -46q42 0 93 22z" />
    <glyph glyph-name="tilde" unicode="&#x2dc;" horiz-adv-x="500" 
d="M428 728q0 -63 -31 -98q-27 -32 -71 -32q-40 0 -74 26q-18 14 -37 28q-24 16 -42 16q-31 0 -39 -67h-62q0 63 31 98q27 32 71 32q40 0 74 -26q57 -44 79 -44q30 0 39 67h62z" />
    <glyph glyph-name="hungarumlaut" unicode="&#x2dd;" horiz-adv-x="500" 
d="M444 755l-137 -160h-56l93 160h100zM267 755l-137 -160h-56l93 160h100z" />
    <glyph glyph-name="mu" unicode="&#xb5;" horiz-adv-x="705" 
d="M643 351q0 -159 -81 -260.5t-211 -101.5t-209.5 100.5t-79.5 259.5t80.5 260.5t210.5 101.5t210 -100.5t80 -259.5zM565 349q0 130 -62 212q-60 79 -153 79q-92 0 -150 -78q-60 -81 -60 -211t60.5 -210.5t153.5 -80.5q92 0 151.5 79.5t59.5 209.5zM392 745h-59l-151 160
h107z" />
    <glyph glyph-name="mu" unicode="&#x3bc;" horiz-adv-x="705" 
d="M643 351q0 -159 -81 -260.5t-211 -101.5t-209.5 100.5t-79.5 259.5t80.5 260.5t210.5 101.5t210 -100.5t80 -259.5zM565 349q0 130 -62 212q-60 79 -153 79q-92 0 -150 -78q-60 -81 -60 -211t60.5 -210.5t153.5 -80.5q92 0 151.5 79.5t59.5 209.5zM392 745h-59l-151 160
h107z" />
    <glyph glyph-name="endash" unicode="&#x2013;" horiz-adv-x="422" 
d="M371 330h-320v71h320v-71z" />
    <glyph glyph-name="emdash" unicode="&#x2014;" horiz-adv-x="580" 
d="M529 330h-478v71h478v-71z" />
    <glyph glyph-name="quoteleft" unicode="&#x2018;" horiz-adv-x="252" 
d="M177 700l-15 -223h-102l65 223h52z" />
    <glyph glyph-name="quoteright" unicode="&#x2019;" horiz-adv-x="252" 
d="M192 700l-65 -223h-52l15 223h102z" />
    <glyph glyph-name="quotesinglbase" unicode="&#x201a;" horiz-adv-x="252" 
d="M192 115l-65 -223h-52l15 223h102z" />
    <glyph glyph-name="quotedblleft" unicode="&#x201c;" horiz-adv-x="469" 
d="M394 700l-15 -223h-102l65 223h52zM177 700l-15 -223h-102l65 223h52z" />
    <glyph glyph-name="quotedblright" unicode="&#x201d;" horiz-adv-x="469" 
d="M409 700l-65 -223h-52l15 223h102zM192 700l-65 -223h-52l15 223h102z" />
    <glyph glyph-name="quotedblbase" unicode="&#x201e;" horiz-adv-x="469" 
d="M409 115l-65 -223h-52l15 223h102zM192 115l-65 -223h-52l15 223h102z" />
    <glyph glyph-name="dagger" unicode="&#x2020;" horiz-adv-x="573" 
d="M518 398h-197v-498h-69v498h-197v66h197v236h69v-236h197v-66z" />
    <glyph glyph-name="daggerdbl" unicode="&#x2021;" horiz-adv-x="573" 
d="M518 136h-197v-236h-69v236h-197v65h197v198h-197v65h197v236h69v-236h197v-65h-197v-198h197v-65z" />
    <glyph glyph-name="bullet" unicode="&#x2022;" horiz-adv-x="374" 
d="M294 366q0 -44 -31.5 -75.5t-75.5 -31.5t-75.5 31.5t-31.5 75.5t31.5 76.5t75.5 32.5t75.5 -32.5t31.5 -76.5z" />
    <glyph glyph-name="ellipsis" unicode="&#x2026;" horiz-adv-x="720" 
d="M664 53q0 -26 -19 -45t-45 -19t-45 19t-19 45t19 46t45 20q25 0 44.5 -20t19.5 -46zM424 53q0 -26 -19 -45t-45 -19t-45 19t-19 45t19 46t45 20q25 0 44.5 -20t19.5 -46zM184 53q0 -26 -19 -45t-45 -19t-45 19t-19 45t19 46t45 20q25 0 44.5 -20t19.5 -46z" />
    <glyph glyph-name="perthousand" unicode="&#x2030;" horiz-adv-x="1345" 
d="M1300 207q0 -96 -45.5 -157t-118.5 -61t-117 59.5t-44 156.5q0 98 44.5 158.5t118.5 60.5q75 0 118.5 -59.5t43.5 -157.5zM903 207q0 -96 -45.5 -157t-118.5 -61t-117 59.5t-44 156.5q0 98 44.5 158.5t118.5 60.5q75 0 118.5 -59.5t43.5 -157.5zM735 700l-435 -700h-73
l435 700h73zM385 494q0 -96 -45.5 -157t-118.5 -61t-117 59.5t-44 156.5q0 98 44.5 158.5t118.5 60.5q75 0 118.5 -59.5t43.5 -157.5zM1231 205q0 70 -25.5 114.5t-68.5 44.5t-68 -43.5t-25 -113.5t25.5 -114t68.5 -44q42 0 68 47q25 44 25 109zM834 205q0 70 -25.5 114.5
t-68.5 44.5t-68 -43.5t-25 -113.5t25.5 -114t68.5 -44q42 0 68 47q25 44 25 109zM316 492q0 70 -25.5 114.5t-68.5 44.5t-68 -43.5t-25 -113.5t25.5 -114t68.5 -44q42 0 68 47q25 44 25 109z" />
    <glyph glyph-name="guilsinglleft" unicode="&#x2039;" horiz-adv-x="363" 
d="M318 0h-85l-203 262l203 263h85l-203 -262z" />
    <glyph glyph-name="guilsinglright" unicode="&#x203a;" horiz-adv-x="363" 
d="M333 263l-203 -263h-85l203 262l-203 263h85z" />
    <glyph glyph-name="fraction" unicode="&#x2044;" horiz-adv-x="457" 
d="M508 700l-477 -700h-82l477 700h82z" />
    <glyph glyph-name="minus" unicode="&#xad;" horiz-adv-x="587" 
d="M530 0h-438v700h423v-71h-345v-220h200v-71h-200v-267h360v-71zM468 745h-65l-101 103l-101 -103h-63l123 160h84z" />
    <glyph glyph-name="minus" unicode="&#x2212;" horiz-adv-x="587" 
d="M530 0h-438v700h423v-71h-345v-220h200v-71h-200v-267h360v-71zM468 745h-65l-101 103l-101 -103h-63l123 160h84z" />
    <glyph glyph-name="periodcentered" unicode="&#xb7;" horiz-adv-x="240" 
d="M184 367q0 -26 -19 -45t-45 -19t-45 19t-19 45t19 46t45 20q25 0 44.5 -20t19.5 -46z" />
    <glyph glyph-name="periodcentered" unicode="&#x2219;" horiz-adv-x="240" 
d="M184 367q0 -26 -19 -45t-45 -19t-45 19t-19 45t19 46t45 20q25 0 44.5 -20t19.5 -46z" />
    <glyph glyph-name="fi" unicode="&#xf001;" horiz-adv-x="597" 
d="M525 672q0 -22 -15.5 -37.5t-36.5 -15.5q-23 0 -39 15.5t-16 37.5q0 23 16 38.5t39 15.5q21 0 36.5 -16t15.5 -38zM509 0h-75v525h75v-525zM309 646q-25 12 -61 12q-54 0 -54 -55v-78h103v-63h-103v-462h-75v462h-72v63h72v72q0 129 124 129q39 0 66 -9v-71z" />
    <glyph glyph-name="fl" unicode="&#xf002;" horiz-adv-x="597" 
d="M509 0h-75v687l75 42v-729zM309 646q-25 12 -61 12q-54 0 -54 -55v-78h103v-63h-103v-462h-75v462h-72v63h72v72q0 129 124 129q39 0 66 -9v-71z" />
    <glyph glyph-name="glyph228" horiz-adv-x="280" 
 />
    <glyph glyph-name="nonbreakingspace" unicode="&#xa0;" horiz-adv-x="587" 
d="M530 0h-438v700h423v-71h-345v-220h200v-71h-200v-267h360v-71zM456 808q0 -22 -16 -38.5t-39 -16.5q-22 0 -38.5 16.5t-16.5 38.5q0 23 16.5 39.5t38.5 16.5t38.5 -16.5t16.5 -39.5zM262 808q0 -22 -16 -38.5t-38 -16.5q-23 0 -39.5 16t-16.5 39t16.5 39.5t39.5 16.5
q22 0 38 -16.5t16 -39.5z" />
    <glyph glyph-name="eec736" horiz-adv-x="678" 
d="M625 0h-82l-60 178h-289l-61 -178h-80l243 700h86zM459 249l-77 230q-35 104 -43 138q-9 -37 -44 -140l-77 -228h241zM504 725h-65l-101 103l-101 -103h-63l123 160h84z" />
    <glyph glyph-name="eec737" horiz-adv-x="678" 
d="M625 0h-82l-60 178h-289l-61 -178h-80l243 700h86zM459 249l-77 230q-35 104 -43 138q-9 -37 -44 -140l-77 -228h241zM517 905l-151 -160h-59l103 160h107z" />
    <glyph glyph-name="eec738" horiz-adv-x="678" 
d="M625 0h-82l-60 178h-289l-61 -178h-80l243 700h86zM459 249l-77 230q-35 104 -43 138q-9 -37 -44 -140l-77 -228h241zM370 745h-59l-151 160h107z" />
    <glyph glyph-name="eec739" horiz-adv-x="770" 
d="M750 345l-176 -117q-7 -5 -11 -2q-5 3 -3 9l30 75h-410l30 -75q2 -6 -3 -9q-4 -3 -11 2l-176 117l176 117q7 5 11 2q5 -3 3 -9l-30 -75h410l-30 75q-2 6 3 9q4 3 11 -2z" />
    <glyph glyph-name="eec740" 
d="M708 345l-166 121q-6 4 -9 3q-5 -2 -2 -10l30 -80h-161v189l80 -30q8 -3 10 2q1 3 -3 9l-121 166l-121 -166q-4 -6 -3 -9q2 -5 10 -2l80 30v-189h-165l30 80q3 8 -2 10q-3 1 -9 -3l-166 -121l166 -121q6 -4 9 -3q5 2 2 10l-30 80h165v-179l-80 30q-8 3 -10 -2q-1 -3 3 -9
l121 -166l121 166q4 6 3 9q-2 5 -10 2l-80 -30v179h161l-30 -80q-3 -8 2 -10q3 -1 9 3z" />
    <glyph glyph-name="eec741" horiz-adv-x="476" 
d="M425 520q0 -83 -53 -138t-134 -55t-134 55t-53 138q0 81 53.5 136t133.5 55q81 0 134 -55t53 -136zM359 520q0 56 -33.5 92.5t-87.5 36.5t-87.5 -36.5t-33.5 -92.5q0 -58 33.5 -94.5t87.5 -36.5q55 0 88 36t33 95z" />
    <glyph glyph-name="eec742" horiz-adv-x="836" 
d="M779 350q0 -160 -102.5 -260.5t-258.5 -100.5t-257 100q-104 101 -104 261t104 261q101 100 257 100t258.5 -100.5t102.5 -260.5zM730 350q0 138 -89 226.5t-223 88.5t-223 -88.5t-89 -226.5t89 -226.5t223 -88.5t223 88.5t89 226.5zM578 441q0 -92 -92 -113l89 -171h-62
l-86 167h-86v-167h-53v399h162q57 0 92.5 -29t35.5 -86zM525 441q0 68 -78 68h-106v-135h100q84 0 84 67z" />
    <glyph glyph-name="eec743" horiz-adv-x="630" 
d="M610 345l-176 -117q-7 -5 -11 -2q-5 3 -3 9l30 75h-395v70h395l-30 75q-2 6 3 9q4 3 11 -2z" />
    <glyph glyph-name="eec744" horiz-adv-x="836" 
d="M779 350q0 -160 -102.5 -260.5t-258.5 -100.5t-257 100q-104 101 -104 261t104 261q101 100 257 100t258.5 -100.5t102.5 -260.5zM730 350q0 138 -89 226.5t-223 88.5t-223 -88.5t-89 -226.5t89 -226.5t223 -88.5t223 88.5t89 226.5zM557 212q-52 -70 -139 -70
q-74 0 -120 59t-46 148q0 91 47 150t121 59q82 0 134 -68l-42 -33q-40 51 -93 51q-50 0 -81.5 -44t-31.5 -113t32 -114t81 -45q56 0 99 54z" />
    <glyph glyph-name="eec745" 
d="M708 345l-166 121q-6 4 -9 3q-5 -2 -2 -10l30 -80h-161v189l80 -30q8 -3 10 2q1 3 -3 9l-121 166l-121 -166q-4 -6 -3 -9q2 -5 10 -2l80 30v-189h-165l30 80q3 8 -2 10q-3 1 -9 -3l-166 -121l166 -121q6 -4 9 -3q5 2 2 10l-30 80h165v-179l-80 30q-8 3 -10 -2q-1 -3 3 -9
l121 -166l121 166q4 6 3 9q-2 5 -10 2l-80 -30v179h161l-30 -80q-3 -8 2 -10q3 -1 9 3z" />
    <glyph glyph-name="eec746" horiz-adv-x="130" 
 />
    <glyph glyph-name="eec747" 
d="M708 345l-166 121q-6 4 -9 3q-5 -2 -2 -10l30 -80h-161v189l80 -30q8 -3 10 2q1 3 -3 9l-121 166l-121 -166q-4 -6 -3 -9q2 -5 10 -2l80 30v-189h-165l30 80q3 8 -2 10q-3 1 -9 -3l-166 -121l166 -121q6 -4 9 -3q5 2 2 10l-30 80h165v-179l-80 30q-8 3 -10 -2q-1 -3 3 -9
l121 -166l121 166q4 6 3 9q-2 5 -10 2l-80 -30v179h161l-30 -80q-3 -8 2 -10q3 -1 9 3z" />
    <glyph glyph-name="eec748" 
d="M708 345l-166 121q-6 4 -9 3q-5 -2 -2 -10l30 -80h-161v189l80 -30q8 -3 10 2q1 3 -3 9l-121 166l-121 -166q-4 -6 -3 -9q2 -5 10 -2l80 30v-189h-165l30 80q3 8 -2 10q-3 1 -9 -3l-166 -121l166 -121q6 -4 9 -3q5 2 2 10l-30 80h165v-179l-80 30q-8 3 -10 -2q-1 -3 3 -9
l121 -166l121 166q4 6 3 9q-2 5 -10 2l-80 -30v179h161l-30 -80q-3 -8 2 -10q3 -1 9 3z" />
    <glyph glyph-name="eec749" 
d="M708 345l-166 121q-6 4 -9 3q-5 -2 -2 -10l30 -80h-161v189l80 -30q8 -3 10 2q1 3 -3 9l-121 166l-121 -166q-4 -6 -3 -9q2 -5 10 -2l80 30v-189h-165l30 80q3 8 -2 10q-3 1 -9 -3l-166 -121l166 -121q6 -4 9 -3q5 2 2 10l-30 80h165v-179l-80 30q-8 3 -10 -2q-1 -3 3 -9
l121 -166l121 166q4 6 3 9q-2 5 -10 2l-80 -30v179h161l-30 -80q-3 -8 2 -10q3 -1 9 3z" />
    <glyph glyph-name="eec750" 
d="M708 345l-166 121q-6 4 -9 3q-5 -2 -2 -10l30 -80h-161v189l80 -30q8 -3 10 2q1 3 -3 9l-121 166l-121 -166q-4 -6 -3 -9q2 -5 10 -2l80 30v-189h-165l30 80q3 8 -2 10q-3 1 -9 -3l-166 -121l166 -121q6 -4 9 -3q5 2 2 10l-30 80h165v-179l-80 30q-8 3 -10 -2q-1 -3 3 -9
l121 -166l121 166q4 6 3 9q-2 5 -10 2l-80 -30v179h161l-30 -80q-3 -8 2 -10q3 -1 9 3z" />
    <glyph glyph-name="eec751" 
d="M708 345l-166 121q-6 4 -9 3q-5 -2 -2 -10l30 -80h-161v189l80 -30q8 -3 10 2q1 3 -3 9l-121 166l-121 -166q-4 -6 -3 -9q2 -5 10 -2l80 30v-189h-165l30 80q3 8 -2 10q-3 1 -9 -3l-166 -121l166 -121q6 -4 9 -3q5 2 2 10l-30 80h165v-179l-80 30q-8 3 -10 -2q-1 -3 3 -9
l121 -166l121 166q4 6 3 9q-2 5 -10 2l-80 -30v179h161l-30 -80q-3 -8 2 -10q3 -1 9 3z" />
    <glyph glyph-name="eec752" 
d="M708 345l-166 121q-6 4 -9 3q-5 -2 -2 -10l30 -80h-161v189l80 -30q8 -3 10 2q1 3 -3 9l-121 166l-121 -166q-4 -6 -3 -9q2 -5 10 -2l80 30v-189h-165l30 80q3 8 -2 10q-3 1 -9 -3l-166 -121l166 -121q6 -4 9 -3q5 2 2 10l-30 80h165v-179l-80 30q-8 3 -10 -2q-1 -3 3 -9
l121 -166l121 166q4 6 3 9q-2 5 -10 2l-80 -30v179h161l-30 -80q-3 -8 2 -10q3 -1 9 3z" />
    <glyph glyph-name="eec753" 
d="M708 345l-166 121q-6 4 -9 3q-5 -2 -2 -10l30 -80h-161v189l80 -30q8 -3 10 2q1 3 -3 9l-121 166l-121 -166q-4 -6 -3 -9q2 -5 10 -2l80 30v-189h-165l30 80q3 8 -2 10q-3 1 -9 -3l-166 -121l166 -121q6 -4 9 -3q5 2 2 10l-30 80h165v-179l-80 30q-8 3 -10 -2q-1 -3 3 -9
l121 -166l121 166q4 6 3 9q-2 5 -10 2l-80 -30v179h161l-30 -80q-3 -8 2 -10q3 -1 9 3z" />
  </font>
</defs>
</svg>
